<svg width="24" height="25" viewBox="0 0 24 25" fill="none" xmlns="http://www.w3.org/2000/svg">
<path d="M17.5257 4.60012C17.0616 4.83918 16.8554 5.37825 17.0382 5.86575C17.1085 6.04856 17.3335 6.30168 18.3179 7.29075L19.5179 8.50012L10.5648 8.5095L1.60696 8.52356L1.41478 8.6595C0.90384 9.01106 0.842903 9.81731 1.2929 10.2439C1.60696 10.5345 0.781965 10.5157 12.0085 10.5157C21.8335 10.5157 22.2507 10.5111 22.4288 10.4267C22.9304 10.2017 23.1507 9.58293 22.9163 9.06262C22.7804 8.75793 18.7773 4.75012 18.4491 4.58606C18.1304 4.42668 17.8491 4.43137 17.5257 4.60012Z" fill="#00B899"/>
<path d="M1.57031 14.5734C1.21875 14.7328 0.984375 15.1078 0.984375 15.5015C0.989063 15.9468 1.04063 16.0125 3.225 18.2015C4.35 19.3312 5.36719 20.3109 5.48438 20.3812C5.78906 20.564 6.21563 20.5593 6.525 20.3765C6.94688 20.1328 7.13438 19.5937 6.96094 19.1343C6.89062 18.9515 6.66563 18.6984 5.68125 17.7093L4.48125 16.5L13.4344 16.4906L22.3922 16.4765L22.5844 16.3406C23.2172 15.9046 23.1328 14.8968 22.4297 14.5734C22.2469 14.489 21.8719 14.4843 12 14.4843C2.16563 14.4843 1.74844 14.489 1.57031 14.5734Z" fill="#00B899"/>
</svg>
