<svg width="24" height="24" viewBox="0 0 24 24" fill="none" xmlns="http://www.w3.org/2000/svg">
<rect width="24" height="24" rx="12" fill="#BDBDC4"/>
<path d="M12.0007 5.33203C13.812 5.33203 14.038 5.3387 14.7487 5.37203C15.4587 5.40536 15.942 5.5167 16.3673 5.68203C16.8073 5.85136 17.178 6.0807 17.5487 6.4507C17.8876 6.78396 18.15 7.18709 18.3173 7.63203C18.482 8.0567 18.594 8.5407 18.6273 9.2507C18.6587 9.96136 18.6673 10.1874 18.6673 11.9987C18.6673 13.81 18.6607 14.036 18.6273 14.7467C18.594 15.4567 18.482 15.94 18.3173 16.3654C18.1504 16.8105 17.8881 17.2138 17.5487 17.5467C17.2153 17.8856 16.8122 18.1479 16.3673 18.3154C15.9427 18.48 15.4587 18.592 14.7487 18.6254C14.038 18.6567 13.812 18.6654 12.0007 18.6654C10.1893 18.6654 9.96332 18.6587 9.25265 18.6254C8.54265 18.592 8.05932 18.48 7.63398 18.3154C7.18887 18.1483 6.78567 17.886 6.45265 17.5467C6.11359 17.2135 5.85127 16.8103 5.68398 16.3654C5.51865 15.9407 5.40732 15.4567 5.37398 14.7467C5.34265 14.036 5.33398 13.81 5.33398 11.9987C5.33398 10.1874 5.34065 9.96136 5.37398 9.2507C5.40732 8.54003 5.51865 8.05736 5.68398 7.63203C5.85081 7.18682 6.11319 6.78358 6.45265 6.4507C6.78577 6.11152 7.18894 5.84918 7.63398 5.68203C8.05932 5.5167 8.54198 5.40536 9.25265 5.37203C9.96332 5.3407 10.1893 5.33203 12.0007 5.33203ZM12.0007 8.66536C11.1166 8.66536 10.2687 9.01655 9.64363 9.64168C9.01851 10.2668 8.66732 11.1146 8.66732 11.9987C8.66732 12.8828 9.01851 13.7306 9.64363 14.3557C10.2687 14.9808 11.1166 15.332 12.0007 15.332C12.8847 15.332 13.7326 14.9808 14.3577 14.3557C14.9828 13.7306 15.334 12.8828 15.334 11.9987C15.334 11.1146 14.9828 10.2668 14.3577 9.64168C13.7326 9.01655 12.8847 8.66536 12.0007 8.66536ZM16.334 8.4987C16.334 8.27768 16.2462 8.06572 16.0899 7.90944C15.9336 7.75316 15.7217 7.66536 15.5007 7.66536C15.2796 7.66536 15.0677 7.75316 14.9114 7.90944C14.7551 8.06572 14.6673 8.27768 14.6673 8.4987C14.6673 8.71971 14.7551 8.93167 14.9114 9.08795C15.0677 9.24423 15.2796 9.33203 15.5007 9.33203C15.7217 9.33203 15.9336 9.24423 16.0899 9.08795C16.2462 8.93167 16.334 8.71971 16.334 8.4987ZM12.0007 9.9987C12.5311 9.9987 13.0398 10.2094 13.4149 10.5845C13.7899 10.9596 14.0007 11.4683 14.0007 11.9987C14.0007 12.5291 13.7899 13.0378 13.4149 13.4129C13.0398 13.788 12.5311 13.9987 12.0007 13.9987C11.4702 13.9987 10.9615 13.788 10.5864 13.4129C10.2114 13.0378 10.0007 12.5291 10.0007 11.9987C10.0007 11.4683 10.2114 10.9596 10.5864 10.5845C10.9615 10.2094 11.4702 9.9987 12.0007 9.9987Z" fill="#0D0D0D"/>
</svg>
