<svg width="24" height="24" viewBox="0 0 24 24" fill="none" xmlns="http://www.w3.org/2000/svg">
<rect width="24" height="24" rx="12" fill="#BDBDC4"/>
<path d="M8.62565 7.334C8.62547 7.68762 8.48483 8.02669 8.23466 8.27661C7.98448 8.52654 7.64527 8.66684 7.29165 8.66667C6.93803 8.66649 6.59896 8.52584 6.34904 8.27567C6.09911 8.0255 5.95881 7.68629 5.95898 7.33267C5.95916 6.97904 6.09981 6.63998 6.34998 6.39005C6.60015 6.14013 6.93936 5.99982 7.29298 6C7.64661 6.00018 7.98567 6.14082 8.2356 6.391C8.48552 6.64117 8.62583 6.98038 8.62565 7.334ZM8.66565 9.654H5.99898V18.0007H8.66565V9.654ZM12.879 9.654H10.2257V18.0007H12.8523V13.6207C12.8523 11.1807 16.0323 10.954 16.0323 13.6207V18.0007H18.6657V12.714C18.6657 8.60067 13.959 8.754 12.8523 10.774L12.879 9.654Z" fill="#0D0D0D"/>
</svg>
