<svg width="141" height="48" viewBox="0 0 141 48" fill="none" xmlns="http://www.w3.org/2000/svg">
<path d="M5.21794 18.4353C3.62507 19.2538 2.35746 20.387 1.41451 21.834C0.470947 23.2812 0 24.9538 0 26.8516C0 28.7501 0.470947 30.4282 1.41451 31.8874C2.35746 33.3466 3.61947 34.4796 5.19963 35.286C6.77964 36.092 8.52516 36.4961 10.4362 36.4961C12.3472 36.4961 14.0927 36.092 15.6733 35.286C17.2533 34.4796 18.5084 33.3466 19.44 31.8874C20.3705 30.4282 20.8362 28.7501 20.8362 26.8516C20.8362 24.9538 20.3705 23.2812 19.44 21.834C18.5084 20.387 17.2588 19.2538 15.6912 18.4353C14.1231 17.6166 12.3841 17.2074 10.4731 17.2074C8.56207 17.2074 6.81005 17.6166 5.21794 18.4353ZM8.6722 29.9122C8.15784 29.6043 7.75361 29.1826 7.45951 28.6488C7.16602 28.1152 7.01897 27.5046 7.01897 26.816C7.01897 26.1282 7.16602 25.5234 7.45951 25.0011C7.75361 24.4796 8.15784 24.0642 8.6722 23.7555C9.18702 23.4476 9.77476 23.2927 10.4362 23.2927C11.0976 23.2927 11.6858 23.4476 12.2001 23.7555C12.7147 24.0642 13.1128 24.4796 13.3944 25.0011C13.6761 25.5234 13.8172 26.1282 13.8172 26.816C13.8172 27.5046 13.6761 28.1152 13.3944 28.6488C13.1128 29.1826 12.7147 29.6043 12.2001 29.9122C11.6858 30.2209 11.0976 30.3749 10.4362 30.3749C9.77476 30.3749 9.18702 30.2209 8.6722 29.9122Z" fill="white"/>
<path d="M26.7563 18.7022C25.262 19.4139 24.0976 20.3925 23.2652 21.6381C22.4324 22.8838 22.0156 24.3015 22.0156 25.891V36.4961H29.0347V26.318C29.0347 25.8675 29.1453 25.446 29.3656 25.0546C29.5859 24.6631 29.9105 24.3429 30.3396 24.0938C30.7677 23.8446 31.2638 23.7201 31.8279 23.7201C32.3911 23.7201 32.8751 23.8446 33.2793 24.0938C33.6836 24.3429 33.9961 24.6631 34.2164 25.0546C34.4366 25.446 34.5474 25.8675 34.5474 26.318V36.4961H41.6028V25.891C41.6028 24.3015 41.2169 22.8838 40.4453 21.6381C39.6738 20.3925 38.5647 19.4139 37.1198 18.7022C35.6738 17.9905 33.9592 17.6346 31.975 17.6346C29.9901 17.6346 28.2506 17.9905 26.7563 18.7022Z" fill="white"/>
<path d="M103.367 18.4534C101.762 19.3075 100.506 20.4879 99.6 21.9944C98.6929 23.5011 98.2402 25.2389 98.2402 27.2079C98.2402 29.0587 98.6075 30.6778 99.3423 32.0657C100.078 33.4535 101.082 34.5389 102.356 35.3219C103.629 36.1046 105.063 36.4961 106.655 36.4961C107.66 36.4961 108.53 36.3659 109.265 36.1046C110 35.844 110.63 35.4704 111.157 34.9839C111.684 34.4978 112.106 33.9339 112.425 33.2935H112.646V36.4961H119.334V26.8876C119.334 24.9659 118.899 23.2756 118.029 21.8163C117.16 20.3574 115.953 19.2186 114.409 18.4001C112.866 17.5814 111.053 17.1722 108.971 17.1722C106.839 17.1722 104.971 17.5993 103.367 18.4534ZM107.097 30.0548C106.582 29.747 106.183 29.3136 105.902 28.7559C105.62 28.199 105.48 27.5636 105.48 26.8519C105.48 26.1642 105.62 25.5594 105.902 25.0371C106.183 24.5154 106.582 24.1001 107.097 23.7914C107.611 23.4835 108.187 23.3288 108.824 23.3288C109.485 23.3288 110.067 23.4835 110.569 23.7914C111.071 24.1001 111.463 24.5154 111.745 25.0371C112.027 25.5594 112.168 26.1642 112.168 26.8519C112.168 27.5636 112.027 28.199 111.745 28.7559C111.463 29.3136 111.071 29.747 110.569 30.0548C110.067 30.3636 109.485 30.5174 108.824 30.5174C108.187 30.5174 107.611 30.3636 107.097 30.0548Z" fill="white"/>
<path d="M133.481 17.6074V27.6167C133.481 27.8499 133.465 28.084 133.414 28.3118C133.251 29.0363 132.863 29.5962 132.25 29.9917C131.846 30.2532 131.35 30.3831 130.762 30.3831C130.198 30.3831 129.708 30.2532 129.292 29.9917C128.875 29.7312 128.557 29.3991 128.336 28.9956C128.116 28.5923 128.005 28.1652 128.005 27.7141V17.6074H120.986V28.2125C120.986 29.4464 121.237 30.5793 121.74 31.6111C122.242 32.6431 122.965 33.5327 123.908 34.2803C124.851 35.0277 125.96 35.5913 127.234 35.9706V45.7488C127.234 46.9684 128.254 47.957 129.514 47.957H134.29V36.0062C135.612 35.6504 136.739 35.0987 137.671 34.3515C138.601 33.604 139.311 32.7026 139.802 31.6467C140.292 30.5912 140.537 29.4464 140.537 28.2125V17.6074H133.481Z" fill="white"/>
<path d="M109.824 43.7344H111.579L110.692 42.0183L109.824 43.7344Z" fill="white"/>
<path d="M77.2321 42.6022C77.2439 42.5788 77.3065 42.451 77.3065 42.2935C77.3065 42.2609 77.2997 41.9702 77.0721 41.8209C76.912 41.7197 76.718 41.7197 76.4932 41.7197H74.123V42.921H76.23C76.3247 42.9232 76.4109 42.9213 76.5044 42.9156C76.8624 42.8978 77.1076 42.8394 77.2321 42.6022Z" fill="white"/>
<path d="M58.0615 42.832C58.0031 42.5859 57.829 42.1327 57.3178 41.8654C57.1316 41.7701 56.7479 41.6153 56.224 41.6153C56.191 41.6153 56.1575 41.6162 56.1234 41.6172C55.9676 41.6225 55.4304 41.662 55.0119 41.9619C54.8127 42.1033 54.3516 42.5132 54.3516 43.2836C54.3516 43.3855 54.3637 43.6518 54.4767 43.9236C54.8532 44.8426 55.9245 44.9141 56.2437 44.9141C56.7263 44.9141 57.1541 44.7891 57.481 44.5525C57.9968 44.1755 58.1052 43.6287 58.1052 43.2362C58.1057 43.1182 58.1063 43.0053 58.0627 42.8358C58.0624 42.8348 58.0621 42.8333 58.0615 42.832Z" fill="white"/>
<path d="M21.5449 43.7344H23.2992L22.4134 42.0183L21.5449 43.7344Z" fill="white"/>
<path d="M6.19594 41.831C6.05252 41.7344 5.86735 41.7145 5.63377 41.7145H3.36133V42.9219H5.34542C5.66675 42.9219 6.03074 42.9219 6.2501 42.7185C6.36084 42.6179 6.41636 42.4797 6.41636 42.3061C6.41636 42.2928 6.41379 41.979 6.19594 41.831Z" fill="white"/>
<path d="M121.738 45.3661C121.738 45.4819 121.641 45.5758 121.521 45.5758H117.941C117.822 45.5758 117.725 45.4819 117.725 45.3661V41.1752C117.725 41.0595 117.822 40.9656 117.941 40.9656H118.37C118.49 40.9656 118.587 41.0595 118.587 41.1752V44.8066H121.521C121.641 44.8066 121.738 44.9006 121.738 45.0163V45.3661ZM113.29 45.4759C113.25 45.5381 113.18 45.5758 113.105 45.5758H112.658C112.576 45.5758 112.501 45.531 112.464 45.4595L111.966 44.4895H109.446L108.954 45.4589C108.917 45.5304 108.841 45.5758 108.759 45.5758H108.324C108.249 45.5758 108.18 45.5381 108.14 45.4769C108.101 45.4152 108.097 45.3383 108.13 45.2734L110.263 41.0824C110.299 41.0109 110.375 40.9656 110.457 40.9656H110.923C111.005 40.9656 111.08 41.0101 111.116 41.0807L113.299 45.2717C113.333 45.3367 113.329 45.4142 113.29 45.4759ZM103.937 45.3661C103.937 45.4819 103.84 45.5758 103.721 45.5758H99.3992C99.2797 45.5758 99.1828 45.4819 99.1828 45.3661V41.1752C99.1828 41.0595 99.2797 40.9656 99.3992 40.9656H103.543C103.662 40.9656 103.759 41.0595 103.759 41.1752V41.5197C103.759 41.6354 103.662 41.7292 103.543 41.7292H100.038V42.7821H103.261C103.38 42.7821 103.477 42.876 103.477 42.9918V43.3479C103.477 43.4636 103.38 43.5575 103.261 43.5575H100.038V44.8066H103.721C103.84 44.8066 103.937 44.9006 103.937 45.0163V45.3661ZM94.3191 45.3661C94.3191 45.4819 94.2221 45.5758 94.1026 45.5758H93.7165C93.597 45.5758 93.5002 45.4819 93.5002 45.3661V42.6034L92.1478 45.4535C92.1124 45.5283 92.0357 45.5758 91.9512 45.5758H91.5223C91.4383 45.5758 91.3622 45.5288 91.3261 45.4551L89.961 42.635V45.3661C89.961 45.4819 89.8641 45.5758 89.7445 45.5758H89.3523C89.2327 45.5758 89.1358 45.4819 89.1358 45.3661V41.1752C89.1358 41.0595 89.2327 40.9656 89.3523 40.9656H89.9034C89.9875 40.9656 90.064 41.0125 90.0996 41.0862L91.7427 44.4818C91.745 44.4874 91.7477 44.4925 91.7506 44.4977L93.3664 41.0879C93.402 41.0134 93.4787 40.9656 93.5632 40.9656H94.1026C94.2221 40.9656 94.3191 41.0595 94.3191 41.1752V45.3661ZM78.3814 45.4513C78.3465 45.5272 78.2692 45.5758 78.1836 45.5758H77.6013C77.5392 45.5758 77.4801 45.5502 77.4396 45.5053L75.7937 43.706H74.1276V45.3661C74.1276 45.4819 74.0307 45.5758 73.9112 45.5758H73.4947C73.3752 45.5758 73.2782 45.4819 73.2782 45.3661V41.1752C73.2782 41.0595 73.3752 40.9656 73.4947 40.9656H76.4859C76.5946 40.9656 76.7023 40.9656 76.8111 40.9719C77.3324 40.9896 77.7247 41.1832 77.9722 41.5469C78.1588 41.8212 78.1976 42.1225 78.1976 42.3269C78.1976 42.584 78.129 43.0649 77.6695 43.3973C77.4288 43.5684 77.1616 43.6394 76.8984 43.6727L78.3442 45.2258C78.4017 45.2876 78.4164 45.3754 78.3814 45.4513ZM68.4144 43.6863C68.415 43.8897 68.4167 44.3796 68.1242 44.8301C67.799 45.3437 67.3019 45.5113 66.9044 45.5998C66.5109 45.6827 66.2016 45.6827 66.0529 45.6827C65.6216 45.6827 65.2429 45.6379 64.9266 45.5496C64.3229 45.3858 63.9176 45.0381 63.7226 44.5176C63.6089 44.219 63.5992 43.9118 63.5992 43.5971V41.1752C63.5992 41.0595 63.6962 40.9656 63.8157 40.9656H64.2135C64.3331 40.9656 64.43 41.0595 64.43 41.1752V43.5054C64.429 43.8526 64.4278 44.1803 64.6228 44.4426C64.837 44.7313 65.2828 44.8836 65.9119 44.8836C66.9224 44.8836 67.2516 44.6789 67.4342 44.3714C67.5531 44.1702 67.5893 43.9407 67.5893 43.3894V41.1752C67.5893 41.0595 67.6863 40.9656 67.8058 40.9656H68.1981C68.3174 40.9656 68.4144 41.0595 68.4144 41.1752V43.6863ZM58.459 44.7521L58.4589 44.7526C57.759 45.567 56.7524 45.6887 56.2146 45.6887C55.6947 45.6887 54.4155 45.5676 53.7698 44.4473C53.5647 44.0911 53.4604 43.6932 53.4604 43.2647C53.4604 42.9317 53.5261 42.6146 53.6557 42.3218C54.0517 41.4039 55.035 40.8352 56.2242 40.8352H56.2468C56.7351 40.8352 57.9475 40.947 58.6228 41.9837C58.956 42.4958 59.0054 43.0024 59.0054 43.259C59.0054 43.5161 58.9522 44.1765 58.459 44.7521ZM49.7358 41.3021L47.8186 43.7392V45.3661C47.8186 45.4819 47.7216 45.5758 47.6021 45.5758H47.2098C47.0903 45.5758 46.9933 45.4819 46.9933 45.3661V43.7414L44.999 41.3053C44.9474 41.2423 44.9375 41.1563 44.9739 41.0841C45.0099 41.0117 45.0855 40.9656 45.1686 40.9656H45.6837C45.7509 40.9656 45.8139 40.9956 45.8548 41.0469L47.4032 42.9841L48.9 41.0494C48.9408 40.9967 49.005 40.9656 49.0732 40.9656H49.5637C49.646 40.9656 49.7211 41.0109 49.7575 41.0821C49.7941 41.1537 49.7857 41.2388 49.7358 41.3021ZM34.3454 45.3661C34.3454 45.4819 34.2484 45.5758 34.1291 45.5758H33.7427C33.6846 45.5758 33.6288 45.5534 33.5882 45.5129L30.2506 42.2222V45.3661C30.2506 45.4819 30.1536 45.5758 30.0341 45.5758H29.648C29.5285 45.5758 29.4315 45.4819 29.4315 45.3661V41.1752C29.4315 41.0595 29.5285 40.9656 29.648 40.9656H30.0341C30.0925 40.9656 30.1482 40.9883 30.1889 41.0286L33.5262 44.3353V41.1752C33.5262 41.0595 33.6232 40.9656 33.7427 40.9656H34.1291C34.2484 40.9656 34.3454 41.0595 34.3454 41.1752V45.3661ZM24.9957 45.4759C24.9563 45.5381 24.8867 45.5758 24.8113 45.5758H24.3641C24.2818 45.5758 24.2068 45.5304 24.1702 45.4595L23.6723 44.4895H21.1519L20.6598 45.4584C20.6235 45.5304 20.5483 45.5758 20.4657 45.5758H20.0304C19.9559 45.5758 19.8863 45.5381 19.8468 45.4769C19.8073 45.4152 19.8034 45.3383 19.8364 45.2734L21.9692 41.0824C22.0056 41.0109 22.0811 40.9656 22.1634 40.9656H22.6295C22.7112 40.9656 22.7859 41.0101 22.8228 41.0807L25.0047 45.2717C25.0386 45.3367 25.0351 45.4142 24.9957 45.4759ZM15.7906 45.3661C15.7906 45.4819 15.6936 45.5758 15.5741 45.5758H11.9944C11.8749 45.5758 11.7779 45.4819 11.7779 45.3661V41.1752C11.7779 41.0595 11.8749 40.9656 11.9944 40.9656H12.4236C12.5431 40.9656 12.6399 41.0595 12.6399 41.1752V44.8066H15.5741C15.6936 44.8066 15.7906 44.9006 15.7906 45.0163V45.3661ZM6.77494 43.3834C6.3866 43.6755 5.91142 43.7 5.4966 43.7H3.36546V45.3661C3.36546 45.4819 3.26849 45.5758 3.14912 45.5758H2.71978C2.60026 45.5758 2.50344 45.4819 2.50344 45.3661V41.1752C2.50344 41.0595 2.60026 40.9656 2.71978 40.9656H5.59463C6.01036 40.9656 6.41459 40.988 6.78508 41.2571C6.89961 41.3471 6.99734 41.4514 7.03788 41.5106C7.13062 41.6276 7.30051 41.905 7.30051 42.3209C7.30051 42.756 7.11397 43.1331 6.77494 43.3834ZM2.65337 38.5412C1.18788 38.5412 0 39.6916 0 41.1108V45.4305C0 46.8496 1.18788 48 2.65337 48H121.588C123.053 48 124.241 46.8496 124.241 45.4305V38.5412H2.65337Z" fill="white"/>
<path d="M90.2313 17.6022V28.6066C90.2313 29.2922 89.6331 29.8715 88.9249 29.8715C88.2169 29.8715 87.6187 29.2922 87.6187 28.6066V17.6022H80.778V28.6066C80.778 29.2922 80.1795 29.8715 79.4715 29.8715C78.7633 29.8715 78.165 29.2922 78.165 28.6066V17.6022H71.3242V28.6066C71.3242 32.9569 74.9791 36.4961 79.4715 36.4961C81.2329 36.4961 82.8642 35.9502 84.1984 35.0264C85.5324 35.9502 87.1635 36.4961 88.9249 36.4961C93.4173 36.4961 97.072 32.9569 97.072 28.6066V17.6022H90.2313Z" fill="white"/>
<path d="M68.7265 0.0853043L60.7844 4.72699C60.6679 4.79512 60.6945 4.9655 60.8266 4.99714L63.3107 5.59195C63.4744 5.63107 63.5742 5.79149 63.5338 5.95001L60.8926 16.2947C59.3132 15.4005 57.4737 14.8416 55.4129 14.816C50.7372 14.758 46.4454 17.5418 44.7913 21.7774C42.374 27.9669 46.1306 34.638 52.5627 36.1782C58.4678 37.5921 64.4489 34.1576 66.0414 28.5047C66.0651 28.4205 66.0973 28.3405 66.1191 28.2552L71.337 7.81852C71.3776 7.66 71.5431 7.56316 71.7068 7.60228L74.1909 8.19708C74.3229 8.22873 74.4285 8.09014 74.3582 7.97718L69.5649 0.286015C69.4502 0.102005 69.2484 3.8147e-05 69.0415 3.8147e-05C68.9339 3.8147e-05 68.8251 0.0275841 68.7265 0.0853043ZM54.4922 28.6213C52.8019 28.2167 51.7667 26.5556 52.1847 24.9186C52.6026 23.2817 54.3178 22.2792 56.0082 22.684C57.6985 23.0886 58.7337 24.7498 58.3157 26.3867C57.9605 27.7781 56.668 28.7112 55.2501 28.7112C54.9999 28.7112 54.7459 28.6821 54.4922 28.6213Z" fill="white"/>
<path d="M58.2539 26.6336L58.2673 26.6367L58.3323 26.384C58.3104 26.4693 58.2829 26.5519 58.2539 26.6336Z" fill="url(#paint0_linear_1407_7628)"/>
<path d="M56.8223 23.0036C58.021 23.6633 58.6769 25.036 58.33 26.3945L60.9068 16.3025C60.0042 15.7915 59.0169 15.3901 57.9519 15.135C57.6979 15.0742 57.444 15.0349 57.19 14.9919L56.8223 23.0036Z" fill="#F4F4F4"/>
<path d="M48.3552 27.1869L47.7994 27.3072C47.721 27.3242 47.6705 27.4014 47.6896 27.4771C48.0259 28.8151 48.7318 30.0288 49.7398 31.0027C49.7968 31.0577 49.8912 31.056 49.9469 30.9998L50.3413 30.6022C50.3944 30.5487 50.3923 30.4655 50.3381 30.4132C49.4452 29.5491 48.8197 28.4735 48.5204 27.2875C48.5021 27.2156 48.43 27.1708 48.3552 27.1869Z" fill="#1B1D33"/>
<path d="M48.3935 24.078C48.468 24.0959 48.5415 24.0525 48.5613 23.9807C48.876 22.8461 49.4911 21.8185 50.3486 20.9953C50.4029 20.9431 50.4053 20.8599 50.3525 20.8063L49.9604 20.4072C49.9049 20.3507 49.81 20.3486 49.7528 20.4034C48.7834 21.3326 48.089 22.4923 47.7353 23.7733C47.7144 23.8484 47.7633 23.9271 47.8414 23.9459L48.3935 24.078Z" fill="#1B1D33"/>
<path d="M64.3933 17.8246L64.9456 17.9569C65.0219 17.9751 65.099 17.9301 65.1178 17.8563L66.076 14.1035C66.0948 14.0297 66.0483 13.955 65.9721 13.9368L65.4198 13.8045C65.3435 13.7862 65.2664 13.8313 65.2474 13.9052L64.2894 17.6579C64.2705 17.7317 64.3171 17.8063 64.3933 17.8246Z" fill="#1B1D33"/>
<path d="M66.1218 11.0707L66.6742 11.203C66.7504 11.2212 66.8276 11.1762 66.8463 11.1024L67.8044 7.34993C67.8233 7.27609 67.7767 7.20137 67.7005 7.18306L67.1481 7.05091C67.0719 7.0326 66.9949 7.07772 66.976 7.15156L66.0179 10.904C65.999 10.9778 66.0456 11.0524 66.1218 11.0707Z" fill="#1B1D33"/>
<path d="M59.6911 30.8578L60.0594 31.2784C60.1115 31.3379 60.2057 31.3452 60.2659 31.2937C61.3337 30.3824 62.1133 29.212 62.5305 27.8935C62.5541 27.819 62.5084 27.7389 62.4311 27.7175L61.8836 27.5662C61.8101 27.5458 61.7352 27.5865 61.7127 27.6573C61.342 28.8248 60.6514 29.8616 59.7063 30.6694C59.649 30.7185 59.6416 30.8013 59.6911 30.8578Z" fill="#1B1D33"/>
<path d="M62.6648 24.5746L63.2171 24.7069C63.2934 24.7251 63.3705 24.6801 63.3893 24.6063L64.3475 20.8535C64.3663 20.7797 64.3198 20.705 64.2436 20.6868L63.6912 20.5545C63.615 20.5362 63.5378 20.5813 63.5189 20.6552L62.5608 24.4079C62.5419 24.4817 62.5885 24.5563 62.6648 24.5746Z" fill="#1B1D33"/>
<path d="M56.891 18.5997C56.9162 18.5216 56.8665 18.4371 56.7837 18.4198C55.4839 18.1497 54.1412 18.2062 52.8766 18.5895C52.7998 18.6128 52.7573 18.6948 52.7828 18.7688L52.963 19.2912C52.9872 19.3615 53.0642 19.3985 53.1374 19.3765C54.2442 19.0422 55.4174 18.9946 56.5563 19.2235C56.6268 19.2377 56.6964 19.1994 56.7179 19.1329L56.891 18.5997Z" fill="#1B1D33"/>
<path d="M57.1481 32.7773L56.9992 32.2453C56.9793 32.1738 56.9051 32.1328 56.831 32.1507C55.8042 32.3977 54.7103 32.4015 53.6826 32.1813C53.6087 32.1653 53.536 32.2075 53.517 32.2786L53.3737 32.8151C53.3534 32.8912 53.4025 32.9706 53.4816 32.9879C54.6565 33.2449 55.8816 33.2326 57.0439 32.9513C57.1219 32.9323 57.1693 32.8526 57.1481 32.7773Z" fill="#1B1D33"/>
<path d="M67.6335 5.18008L68.1859 5.31238C68.2621 5.33054 68.3393 5.28557 68.358 5.21173L69.0256 2.59707C69.0446 2.52323 68.998 2.44852 68.9217 2.4302L68.3694 2.29806C68.2931 2.27974 68.216 2.32487 68.1972 2.39871L67.5296 5.01336C67.5107 5.0872 67.5573 5.16177 67.6335 5.18008Z" fill="#1B1D33"/>
<path d="M135.203 11.7317V12.1822H136.043V14.293H136.584V12.1822H137.428V11.7317H135.203Z" fill="url(#paint1_linear_1407_7628)"/>
<path d="M140.305 11.7317L139.21 13.1996L138.114 11.7317H137.852V14.293H138.388V12.8763L139.21 13.988L140.028 12.8763V14.293H140.568V11.7317H140.305Z" fill="url(#paint2_linear_1407_7628)"/>
<defs>
<linearGradient id="paint0_linear_1407_7628" x1="46.2061" y1="7.28276" x2="57.9101" y2="27.4842" gradientUnits="userSpaceOnUse">
<stop stop-color="#333333"/>
<stop offset="1"/>
</linearGradient>
<linearGradient id="paint1_linear_1407_7628" x1="82.6329" y1="-39.3818" x2="172.452" y2="53.3666" gradientUnits="userSpaceOnUse">
<stop stop-color="#333333"/>
<stop offset="1"/>
</linearGradient>
<linearGradient id="paint2_linear_1407_7628" x1="83.8809" y1="-40.566" x2="173.7" y2="52.188" gradientUnits="userSpaceOnUse">
<stop stop-color="#333333"/>
<stop offset="1"/>
</linearGradient>
</defs>
</svg>
