<svg width="118" height="40" viewBox="0 0 118 40" fill="none" xmlns="http://www.w3.org/2000/svg">
<path d="M4.34901 15.3569C3.0214 16.0391 1.96488 16.9836 1.17895 18.1897C0.392522 19.3959 0 20.79 0 22.3717C0 23.9541 0.392522 25.3527 1.17895 26.5689C1.96488 27.7851 3.01673 28.7295 4.33376 29.4016C5.65065 30.0734 7.1055 30.4102 8.69828 30.4102C10.2911 30.4102 11.7459 30.0734 13.0633 29.4016C14.3802 28.7295 15.4263 27.7851 16.2027 26.5689C16.9783 25.3527 17.3664 23.9541 17.3664 22.3717C17.3664 20.79 16.9783 19.3959 16.2027 18.1897C15.4263 16.9836 14.3847 16.0391 13.0782 15.3569C11.7713 14.6746 10.3218 14.3335 8.72905 14.3335C7.13626 14.3335 5.676 14.6746 4.34901 15.3569ZM7.22806 24.9227C6.79935 24.666 6.46243 24.3146 6.21731 23.8696C5.97269 23.4249 5.85013 22.916 5.85013 22.3421C5.85013 21.7688 5.97269 21.2647 6.21731 20.8294C6.46243 20.3947 6.79935 20.0485 7.22806 19.7912C7.65714 19.5346 8.14701 19.4055 8.69828 19.4055C9.24955 19.4055 9.73979 19.5346 10.1685 19.7912C10.5973 20.0485 10.9292 20.3947 11.1639 20.8294C11.3987 21.2647 11.5163 21.7688 11.5163 22.3421C11.5163 22.916 11.3987 23.4249 11.1639 23.8696C10.9292 24.3146 10.5973 24.666 10.1685 24.9227C9.73979 25.1799 9.24955 25.3083 8.69828 25.3083C8.14701 25.3083 7.65714 25.1799 7.22806 24.9227Z" fill="url(#paint0_linear_1407_7864)"/>
<path d="M22.291 15.5911C21.0456 16.1843 20.0751 17 19.3814 18.0381C18.6872 19.0764 18.3398 20.258 18.3398 21.5828V30.4219H24.1901V21.9387C24.1901 21.5632 24.2823 21.2119 24.4659 20.8857C24.6494 20.5594 24.92 20.2925 25.2776 20.0849C25.6345 19.8772 26.0479 19.7734 26.5181 19.7734C26.9876 19.7734 27.3909 19.8772 27.7278 20.0849C28.0648 20.2925 28.3253 20.5594 28.5088 20.8857C28.6924 21.2119 28.7847 21.5632 28.7847 21.9387V30.4219H34.6653V21.5828C34.6653 20.258 34.3436 19.0764 33.7005 18.0381C33.0575 17 32.1331 16.1843 30.9288 15.5911C29.7236 14.9979 28.2945 14.7013 26.6407 14.7013C24.9864 14.7013 23.5366 14.9979 22.291 15.5911Z" fill="url(#paint1_linear_1407_7864)"/>
<path d="M86.1555 15.3838C84.818 16.0957 83.7709 17.0795 83.0161 18.3351C82.2601 19.5909 81.8828 21.0393 81.8828 22.6804C81.8828 24.223 82.189 25.5725 82.8014 26.7292C83.4142 27.886 84.2512 28.7906 85.313 29.4432C86.3746 30.0956 87.5693 30.4219 88.8966 30.4219C89.7338 30.4219 90.4587 30.3133 91.0715 30.0956C91.6841 29.8784 92.2093 29.567 92.6489 29.1615C93.0875 28.7563 93.4398 28.2863 93.7058 27.7526H93.8894V30.4219H99.4636V22.4135C99.4636 20.8118 99.101 19.4029 98.3764 18.1866C97.6515 16.9707 96.6457 16.0215 95.3595 15.3393C94.0729 14.657 92.5616 14.3159 90.8263 14.3159C89.05 14.3159 87.4925 14.6719 86.1555 15.3838ZM89.2643 25.0532C88.8355 24.7966 88.5032 24.4355 88.269 23.9706C88.0338 23.5065 87.9167 22.9769 87.9167 22.3837C87.9167 21.8105 88.0338 21.3065 88.269 20.8711C88.5032 20.4363 88.8355 20.0901 89.2643 19.8329C89.693 19.5762 90.1728 19.4473 90.7038 19.4473C91.2551 19.4473 91.7399 19.5762 92.1586 19.8329C92.5769 20.0901 92.9038 20.4363 93.139 20.8711C93.3734 21.3065 93.4909 21.8105 93.4909 22.3837C93.4909 22.9769 93.3734 23.5065 93.139 23.9706C92.9038 24.4355 92.5769 24.7966 92.1586 25.0532C91.7399 25.3106 91.2551 25.4388 90.7038 25.4388C90.1728 25.4388 89.693 25.3106 89.2643 25.0532Z" fill="url(#paint2_linear_1407_7864)"/>
<path d="M111.256 14.6653V23.0078C111.256 23.2022 111.242 23.3973 111.2 23.5872C111.064 24.191 110.741 24.6577 110.23 24.9873C109.893 25.2052 109.479 25.3135 108.989 25.3135C108.519 25.3135 108.111 25.2052 107.764 24.9873C107.416 24.7702 107.151 24.4933 106.968 24.1571C106.784 23.8209 106.692 23.465 106.692 23.089V14.6653H100.842V23.5044C100.842 24.5328 101.051 25.477 101.47 26.337C101.888 27.1972 102.491 27.9386 103.277 28.5617C104.063 29.1847 104.987 29.6545 106.049 29.9706V38.1204C106.049 39.137 106.9 39.9609 107.949 39.9609H111.93V30.0003C113.032 29.7037 113.971 29.2438 114.748 28.6211C115.523 27.9981 116.115 27.2467 116.524 26.3667C116.933 25.4869 117.137 24.5328 117.137 23.5044V14.6653H111.256Z" fill="url(#paint3_linear_1407_7864)"/>
<path d="M91.5352 36.4453H92.9976L92.2587 35.015L91.5352 36.4453Z" fill="#07B595"/>
<path d="M64.3726 35.507C64.3824 35.4875 64.4346 35.381 64.4346 35.2497C64.4346 35.2225 64.4289 34.9803 64.2392 34.8558C64.1058 34.7715 63.9441 34.7715 63.7567 34.7715H61.7812V35.7727H63.5373C63.6163 35.7745 63.6881 35.7729 63.7661 35.7682C64.0644 35.7534 64.2688 35.7047 64.3726 35.507Z" fill="#07B595"/>
<path d="M48.3929 35.6904C48.3443 35.4853 48.1991 35.1076 47.7731 34.8848C47.6179 34.8054 47.2981 34.6763 46.8614 34.6763C46.8339 34.6763 46.8059 34.6771 46.7776 34.6779C46.6477 34.6823 46.1999 34.7153 45.8512 34.9652C45.6851 35.0831 45.3008 35.4247 45.3008 36.0669C45.3008 36.1517 45.3109 36.3737 45.4051 36.6002C45.7189 37.3662 46.6118 37.4258 46.8778 37.4258C47.2801 37.4258 47.6366 37.3216 47.9091 37.1244C48.339 36.8102 48.4294 36.3544 48.4294 36.0273C48.4298 35.929 48.4303 35.8349 48.3939 35.6936C48.3937 35.6927 48.3934 35.6915 48.3929 35.6904Z" fill="#07B595"/>
<path d="M17.9551 36.4453H19.4172L18.679 35.015L17.9551 36.4453Z" fill="#07B595"/>
<path d="M5.16531 34.8642C5.04577 34.7837 4.89144 34.7671 4.69675 34.7671H2.80273V35.7734H4.45642C4.72424 35.7734 5.02762 35.7734 5.21045 35.6039C5.30275 35.5201 5.34902 35.4049 5.34902 35.2602C5.34902 35.2491 5.34688 34.9875 5.16531 34.8642Z" fill="#07B595"/>
<path d="M101.465 37.8048C101.465 37.9012 101.384 37.9795 101.285 37.9795H98.3011C98.2015 37.9795 98.1208 37.9012 98.1208 37.8048V34.3117C98.1208 34.2153 98.2015 34.137 98.3011 34.137H98.6586C98.7582 34.137 98.839 34.2153 98.839 34.3117V37.3384H101.285C101.384 37.3384 101.465 37.4167 101.465 37.5132V37.8048ZM94.4239 37.8962C94.3912 37.9481 94.3329 37.9795 94.2704 37.9795H93.8974C93.8288 37.9795 93.7664 37.9421 93.7357 37.8825L93.3205 37.0741H91.2201L90.8099 37.882C90.7794 37.9416 90.7165 37.9795 90.6479 37.9795H90.2852C90.2227 37.9795 90.165 37.9481 90.132 37.8971C90.0991 37.8457 90.0959 37.7816 90.1236 37.7275L91.9017 34.2343C91.9317 34.1747 91.9948 34.137 92.0634 34.137H92.4514C92.5195 34.137 92.582 34.1741 92.6125 34.233L94.4315 37.726C94.4598 37.7802 94.4569 37.8448 94.4239 37.8962ZM86.6289 37.8048C86.6289 37.9012 86.548 37.9795 86.4485 37.9795H82.8466C82.747 37.9795 82.6663 37.9012 82.6663 37.8048V34.3117C82.6663 34.2153 82.747 34.137 82.8466 34.137H86.3C86.3996 34.137 86.4804 34.2153 86.4804 34.3117V34.5988C86.4804 34.6953 86.3996 34.7734 86.3 34.7734H83.3793V35.651H86.0651C86.1647 35.651 86.2455 35.7293 86.2455 35.8258V36.1226C86.2455 36.2191 86.1647 36.2973 86.0651 36.2973H83.3793V37.3384H86.4485C86.548 37.3384 86.6289 37.4167 86.6289 37.5132V37.8048ZM78.6125 37.8048C78.6125 37.9012 78.5317 37.9795 78.432 37.9795H78.1103C78.0106 37.9795 77.9299 37.9012 77.9299 37.8048V35.502L76.8028 37.8775C76.7733 37.9399 76.7094 37.9795 76.6389 37.9795H76.2814C76.2114 37.9795 76.148 37.9403 76.1179 37.8789L74.9802 35.5284V37.8048C74.9802 37.9012 74.8993 37.9795 74.7997 37.9795H74.4728C74.3732 37.9795 74.2923 37.9012 74.2923 37.8048V34.3117C74.2923 34.2153 74.3732 34.137 74.4728 34.137H74.9321C75.0022 34.137 75.066 34.1761 75.0957 34.2375L76.4651 37.0677C76.467 37.0724 76.4693 37.0766 76.4717 37.0809L77.8185 34.239C77.8481 34.1768 77.912 34.137 77.9825 34.137H78.432C78.5317 34.137 78.6125 34.2153 78.6125 34.3117V37.8048ZM65.3289 37.8757C65.2998 37.9389 65.2353 37.9795 65.164 37.9795H64.6786C64.6269 37.9795 64.5776 37.9581 64.5438 37.9208L63.1721 36.421H61.7835V37.8048C61.7835 37.9012 61.7026 37.9795 61.603 37.9795H61.2559C61.1563 37.9795 61.0754 37.9012 61.0754 37.8048V34.3117C61.0754 34.2153 61.1563 34.137 61.2559 34.137H63.749C63.8396 34.137 63.9294 34.137 64.0201 34.1423C64.4546 34.157 64.7815 34.3183 64.9878 34.6215C65.1433 34.8501 65.1757 35.1013 65.1757 35.2716C65.1757 35.4859 65.1184 35.8867 64.7355 36.1637C64.5349 36.3064 64.3122 36.3656 64.0928 36.3933L65.2979 37.6878C65.3458 37.7393 65.358 37.8124 65.3289 37.8757ZM57.0216 36.4047C57.0221 36.5742 57.0235 36.9825 56.7798 37.358C56.5087 37.7861 56.0943 37.9258 55.7631 37.9995C55.4351 38.0686 55.1773 38.0686 55.0533 38.0686C54.6938 38.0686 54.3782 38.0313 54.1146 37.9576C53.6115 37.8211 53.2737 37.5314 53.1111 37.0975C53.0163 36.8486 53.0083 36.5926 53.0083 36.3303V34.3117C53.0083 34.2153 53.0891 34.137 53.1887 34.137H53.5203C53.6199 34.137 53.7007 34.2153 53.7007 34.3117V36.2539C53.6999 36.5433 53.6989 36.8164 53.8614 37.035C54.0399 37.2757 54.4115 37.4025 54.9358 37.4025C55.7781 37.4025 56.0525 37.2319 56.2047 36.9756C56.3038 36.808 56.3339 36.6166 56.3339 36.1572V34.3117C56.3339 34.2153 56.4147 34.137 56.5144 34.137H56.8413C56.9408 34.137 57.0216 34.2153 57.0216 34.3117V36.4047ZM48.7241 37.293L48.7239 37.2934C48.1406 37.9722 47.3016 38.0736 46.8534 38.0736C46.4201 38.0736 45.3539 37.9726 44.8157 37.0389C44.6447 36.742 44.5579 36.4104 44.5579 36.0532C44.5579 35.7757 44.6126 35.5115 44.7207 35.2674C45.0506 34.5024 45.8702 34.0283 46.8614 34.0283H46.8802C47.2872 34.0283 48.2977 34.1215 48.8606 34.9855C49.1383 35.4124 49.1795 35.8347 49.1795 36.0485C49.1795 36.2628 49.1351 36.8132 48.7241 37.293ZM41.4535 34.4175L39.8556 36.4487V37.8048C39.8556 37.9012 39.7747 37.9795 39.6751 37.9795H39.3482C39.2485 37.9795 39.1677 37.9012 39.1677 37.8048V36.4506L37.5055 34.4202C37.4625 34.3677 37.4543 34.296 37.4845 34.2358C37.5145 34.1755 37.5776 34.137 37.6468 34.137H38.0762C38.1321 34.137 38.1847 34.162 38.2188 34.2048L39.5093 35.8194L40.7569 34.2069C40.7909 34.1629 40.8444 34.137 40.9012 34.137H41.31C41.3786 34.137 41.4413 34.1747 41.4715 34.2341C41.5021 34.2938 41.4951 34.3647 41.4535 34.4175ZM28.626 37.8048C28.626 37.9012 28.5452 37.9795 28.4457 37.9795H28.1236C28.0752 37.9795 28.0287 37.9608 27.9949 37.9271L25.2131 35.1843V37.8048C25.2131 37.9012 25.1323 37.9795 25.0326 37.9795H24.7109C24.6112 37.9795 24.5304 37.9012 24.5304 37.8048V34.3117C24.5304 34.2153 24.6112 34.137 24.7109 34.137H25.0326C25.0813 34.137 25.1277 34.1559 25.1616 34.1895L27.9432 36.9456V34.3117C27.9432 34.2153 28.024 34.137 28.1236 34.137H28.4457C28.5452 34.137 28.626 34.2153 28.626 34.3117V37.8048ZM20.8333 37.8962C20.8004 37.9481 20.7424 37.9795 20.6796 37.9795H20.3069C20.2383 37.9795 20.1757 37.9416 20.1452 37.8825L19.7303 37.0741H17.6296L17.2194 37.8817C17.1891 37.9416 17.1265 37.9795 17.0576 37.9795H16.6949C16.6327 37.9795 16.5747 37.9481 16.5418 37.8971C16.5089 37.8457 16.5056 37.7816 16.5331 37.7275L18.3107 34.2343C18.3411 34.1747 18.404 34.137 18.4726 34.137H18.8611C18.9292 34.137 18.9915 34.1741 19.0222 34.233L20.8407 37.726C20.869 37.7802 20.8661 37.8448 20.8333 37.8962ZM13.161 37.8048C13.161 37.9012 13.0802 37.9795 12.9806 37.9795H9.99702C9.89741 37.9795 9.81658 37.9012 9.81658 37.8048V34.3117C9.81658 34.2153 9.89741 34.137 9.99702 34.137H10.3547C10.4543 34.137 10.535 34.2153 10.535 34.3117V37.3384H12.9806C13.0802 37.3384 13.161 37.4167 13.161 37.5132V37.8048ZM5.64674 36.1521C5.32306 36.3956 4.92702 36.416 4.58127 36.416H2.80502V37.8048C2.80502 37.9012 2.7242 37.9795 2.62471 37.9795H2.26686C2.16725 37.9795 2.08655 37.9012 2.08655 37.8048V34.3117C2.08655 34.2153 2.16725 34.137 2.26686 34.137H4.66298C5.00947 34.137 5.34639 34.1557 5.65519 34.38C5.75064 34.455 5.8321 34.5419 5.86589 34.5912C5.94318 34.6888 6.08478 34.92 6.08478 35.2666C6.08478 35.6293 5.92931 35.9436 5.64674 36.1521ZM2.21151 32.1164C0.990069 32.1164 0 33.0752 0 34.258V37.8584C0 39.0412 0.990069 40 2.21151 40H101.34C102.562 40 103.552 39.0412 103.552 37.8584V32.1164H2.21151Z" fill="#07B595"/>
<path d="M75.2077 14.6743V23.8462C75.2077 24.4176 74.7092 24.9004 74.1189 24.9004C73.5288 24.9004 73.0303 24.4176 73.0303 23.8462V14.6743H67.3287V23.8462C67.3287 24.4176 66.8299 24.9004 66.2397 24.9004C65.6495 24.9004 65.1508 24.4176 65.1508 23.8462V14.6743H59.4492V23.8462C59.4492 27.472 62.4955 30.4219 66.2397 30.4219C67.7078 30.4219 69.0675 29.9669 70.1795 29.1969C71.2913 29.9669 72.6509 30.4219 74.1189 30.4219C77.8632 30.4219 80.9093 27.472 80.9093 23.8462V14.6743H75.2077Z" fill="url(#paint4_linear_1407_7864)"/>
<path d="M57.2856 0.0744324L50.6661 3.94316C50.569 3.99994 50.5912 4.14195 50.7013 4.16832L52.7717 4.66408C52.9081 4.69668 52.9913 4.83039 52.9577 4.96251L50.7563 13.5845C49.4399 12.8393 47.9067 12.3734 46.1891 12.3521C42.292 12.3037 38.7149 14.624 37.3362 18.1542C35.3216 23.313 38.4525 28.8732 43.8135 30.1569C48.7353 31.3353 53.7204 28.4728 55.0476 23.7613C55.0674 23.6911 55.0943 23.6244 55.1125 23.5533L59.4615 6.51986C59.4953 6.38774 59.6332 6.30703 59.7696 6.33964L61.84 6.83539C61.9501 6.86176 62.0381 6.74625 61.9795 6.65211L57.9844 0.241718C57.8889 0.0883522 57.7206 0.00336647 57.5482 0.00336647C57.4585 0.00336647 57.3678 0.0263233 57.2856 0.0744324ZM45.4217 23.8585C44.0129 23.5212 43.1501 22.1368 43.4984 20.7723C43.8468 19.408 45.2763 18.5725 46.6853 18.9098C48.0941 19.2471 48.9569 20.6317 48.6085 21.996C48.3125 23.1556 47.2352 23.9333 46.0534 23.9333C45.8449 23.9333 45.6332 23.9092 45.4217 23.8585Z" fill="url(#paint5_linear_1407_7864)"/>
<path d="M48.543 22.2006L48.5542 22.2031L48.6083 21.9925C48.59 22.0636 48.5671 22.1324 48.543 22.2006Z" fill="url(#paint6_linear_1407_7864)"/>
<path d="M47.3633 19.1698C48.3624 19.7197 48.909 20.8638 48.6199 21.9961L50.7676 13.5846C50.0154 13.1587 49.1925 12.8242 48.3048 12.6116C48.0931 12.5609 47.8815 12.5282 47.6698 12.4923L47.3633 19.1698Z" fill="url(#paint7_linear_1407_7864)"/>
<path d="M40.3043 22.6415L39.841 22.7418C39.7757 22.7559 39.7336 22.8203 39.7495 22.8834C40.0298 23.9986 40.6181 25.0102 41.4582 25.8219C41.5058 25.8677 41.5845 25.8664 41.6309 25.8195L41.9596 25.4881C42.0038 25.4435 42.0021 25.3742 41.9569 25.3306C41.2127 24.6104 40.6914 23.7139 40.4419 22.7254C40.4267 22.6655 40.3665 22.6281 40.3043 22.6415Z" fill="white"/>
<path d="M40.3359 20.0591C40.3979 20.074 40.4592 20.0379 40.4757 19.9781C40.738 19.0324 41.2507 18.1759 41.9653 17.4898C42.0106 17.4463 42.0126 17.377 41.9686 17.3323L41.6418 16.9997C41.5955 16.9525 41.5165 16.9508 41.4688 16.9965C40.6608 17.7709 40.082 18.7375 39.7872 19.8052C39.7698 19.8678 39.8106 19.9334 39.8756 19.949L40.3359 20.0591Z" fill="white"/>
<path d="M53.6722 14.8473L54.1325 14.9576C54.1961 14.9727 54.2604 14.9352 54.276 14.8737L55.0747 11.7459C55.0903 11.6844 55.0516 11.6221 54.988 11.6069L54.5277 11.4967C54.4641 11.4814 54.3998 11.519 54.3841 11.5806L53.5855 14.7084C53.5698 14.7699 53.6086 14.8321 53.6722 14.8473Z" fill="white"/>
<path d="M55.1116 9.21841L55.572 9.32867C55.6355 9.34381 55.6998 9.30633 55.7155 9.24479L56.514 6.11724C56.5298 6.05569 56.4909 5.99342 56.4274 5.97816L55.967 5.86801C55.9035 5.85275 55.8393 5.89036 55.8235 5.9519L55.025 9.07945C55.0092 9.14099 55.0481 9.20315 55.1116 9.21841Z" fill="white"/>
<path d="M49.754 25.7096L50.061 26.0601C50.1044 26.1097 50.1829 26.1158 50.2331 26.0728C51.1231 25.3133 51.7728 24.3378 52.1206 23.2389C52.1402 23.1768 52.1022 23.11 52.0377 23.0922L51.5814 22.9661C51.5201 22.9491 51.4577 22.983 51.4389 23.042C51.13 24.0151 50.5544 24.8792 49.7667 25.5525C49.7189 25.5935 49.7127 25.6624 49.754 25.7096Z" fill="white"/>
<path d="M52.2308 20.4723L52.6911 20.5826C52.7547 20.5977 52.819 20.5602 52.8346 20.4987L53.6333 17.3709C53.6489 17.3094 53.6102 17.2471 53.5466 17.2319L53.0863 17.1217C53.0227 17.1064 52.9584 17.144 52.9427 17.2056L52.1441 20.3334C52.1284 20.3949 52.1672 20.4571 52.2308 20.4723Z" fill="white"/>
<path d="M47.4165 15.4918C47.4376 15.4268 47.3961 15.3563 47.3271 15.3419C46.2438 15.1167 45.1247 15.1639 44.0707 15.4833C44.0067 15.5027 43.9712 15.5711 43.9925 15.6328L44.1427 16.0682C44.1629 16.1268 44.2271 16.1576 44.2881 16.1393C45.2106 15.8606 46.1884 15.8209 47.1376 16.0118C47.1964 16.0236 47.2544 15.9916 47.2723 15.9362L47.4165 15.4918Z" fill="white"/>
<path d="M47.634 27.3039L47.51 26.8605C47.4933 26.801 47.4315 26.7668 47.3698 26.7817C46.514 26.9875 45.6022 26.9907 44.7457 26.8072C44.684 26.7939 44.6235 26.829 44.6076 26.8883L44.4882 27.3354C44.4713 27.3989 44.5121 27.4651 44.5781 27.4795C45.5573 27.6937 46.5784 27.6834 47.5472 27.449C47.6122 27.4331 47.6517 27.3667 47.634 27.3039Z" fill="white"/>
<path d="M56.3714 4.30435L56.8317 4.41461C56.8953 4.42975 56.9596 4.39227 56.9752 4.33072L57.5317 2.15147C57.5474 2.08993 57.5086 2.02766 57.4451 2.01239L56.9847 1.90225C56.9211 1.88699 56.8568 1.9246 56.8412 1.98614L56.2848 4.16539C56.269 4.22693 56.3078 4.28908 56.3714 4.30435Z" fill="white"/>
<path d="M112.682 9.77928V10.1548H113.382V11.9141H113.832V10.1548H114.536V9.77928H112.682Z" fill="url(#paint8_linear_1407_7864)"/>
<path d="M116.943 9.77928L116.03 11.0028L115.117 9.77928H114.898V11.9141H115.346V10.7333L116.03 11.6598L116.712 10.7333V11.9141H117.162V9.77928H116.943Z" fill="url(#paint9_linear_1407_7864)"/>
<defs>
<linearGradient id="paint0_linear_1407_7864" x1="-16.8877" y1="-2.39352" x2="69.7093" y2="87.029" gradientUnits="userSpaceOnUse">
<stop stop-color="#333333"/>
<stop offset="1"/>
</linearGradient>
<linearGradient id="paint1_linear_1407_7864" x1="-8.93089" y1="-9.74754" x2="77.6662" y2="79.675" gradientUnits="userSpaceOnUse">
<stop stop-color="#333333"/>
<stop offset="1"/>
</linearGradient>
<linearGradient id="paint2_linear_1407_7864" x1="26.4541" y1="-39.5807" x2="113.051" y2="49.8419" gradientUnits="userSpaceOnUse">
<stop stop-color="#333333"/>
<stop offset="1"/>
</linearGradient>
<linearGradient id="paint3_linear_1407_7864" x1="35.9686" y1="-46.4606" x2="120.974" y2="41.3186" gradientUnits="userSpaceOnUse">
<stop stop-color="#333333"/>
<stop offset="1"/>
</linearGradient>
<linearGradient id="paint4_linear_1407_7864" x1="17.2526" y1="-30.6344" x2="103.85" y2="58.7882" gradientUnits="userSpaceOnUse">
<stop stop-color="#333333"/>
<stop offset="1"/>
</linearGradient>
<linearGradient id="paint5_linear_1407_7864" x1="-15.958" y1="-62.2556" x2="159.125" y2="157.961" gradientUnits="userSpaceOnUse">
<stop stop-color="#333333"/>
<stop offset="1"/>
</linearGradient>
<linearGradient id="paint6_linear_1407_7864" x1="38.5014" y1="6.07211" x2="48.2564" y2="22.9095" gradientUnits="userSpaceOnUse">
<stop stop-color="#333333"/>
<stop offset="1"/>
</linearGradient>
<linearGradient id="paint7_linear_1407_7864" x1="41.3802" y1="4.45041" x2="51.1778" y2="21.2142" gradientUnits="userSpaceOnUse">
<stop stop-color="#333333"/>
<stop offset="1"/>
</linearGradient>
<linearGradient id="paint8_linear_1407_7864" x1="68.8657" y1="-32.8225" x2="143.728" y2="44.4809" gradientUnits="userSpaceOnUse">
<stop stop-color="#333333"/>
<stop offset="1"/>
</linearGradient>
<linearGradient id="paint9_linear_1407_7864" x1="69.9153" y1="-33.8094" x2="144.777" y2="43.4985" gradientUnits="userSpaceOnUse">
<stop stop-color="#333333"/>
<stop offset="1"/>
</linearGradient>
</defs>
</svg>
