<svg width="172" height="72" viewBox="0 0 172 72" fill="none" xmlns="http://www.w3.org/2000/svg">
<g clip-path="url(#clip0_1407_7447)">
<path d="M91.7095 56.0021V52.1133H92.5775C93.0401 52.1133 93.3832 52.2113 93.6036 52.4051C93.8251 52.5999 93.9358 52.9004 93.9358 53.3087C93.9358 53.6854 93.8241 53.9815 93.6017 54.196C93.3792 54.4104 93.0708 54.5171 92.6763 54.5171H92.4687V56.0021H91.7095ZM92.4697 53.8694H92.5784C92.7841 53.8694 92.9344 53.8225 93.0273 53.7289C93.1202 53.6353 93.1667 53.4839 93.1667 53.2771C93.1667 53.0855 93.1202 52.9461 93.0273 52.859C92.9344 52.7719 92.7841 52.7273 92.5784 52.7273H92.4697V53.8694Z" fill="#585655"/>
<path d="M95.0474 56.0021V52.1133H95.9047V55.2955H97.2737V56.0021H95.0474Z" fill="#585655"/>
<path d="M97.2759 56.0021L98.5327 52.1133H99.3401L100.615 56.0021H99.8117L99.5435 55.1758H98.2636L98.0333 56.0021H97.2759ZM99.3789 54.5226L99.009 53.2662C98.9988 53.2292 98.9849 53.165 98.9683 53.0746C98.9517 52.9842 98.9341 52.8732 98.9165 52.7426C98.8971 52.8688 98.8777 52.981 98.8601 53.0811C98.8416 53.1813 98.8287 53.2477 98.8194 53.2815L98.4624 54.5215H99.3789V54.5226Z" fill="#585655"/>
<path d="M101.729 56.0021V52.1133H102.514L104.079 54.3767C104.125 54.4409 104.173 54.5302 104.228 54.6467C104.282 54.7632 104.338 54.8993 104.396 55.0571C104.378 54.9417 104.366 54.8274 104.358 54.7142C104.35 54.601 104.346 54.4594 104.346 54.2896V52.1133H105.069V56.0021H104.327L102.718 53.6963C102.673 53.632 102.624 53.5428 102.571 53.4263C102.517 53.3109 102.461 53.1715 102.401 53.0104C102.419 53.1225 102.432 53.2346 102.44 53.349C102.448 53.4633 102.452 53.607 102.452 53.7812V56.0021H101.729Z" fill="#585655"/>
<path d="M109.119 56.0021V54.228L107.85 52.1144H108.789L109.345 53.1788C109.372 53.2322 109.4 53.2996 109.429 53.3802C109.458 53.4618 109.487 53.5554 109.518 53.6621C109.542 53.5717 109.568 53.4868 109.599 53.4074C109.628 53.3279 109.663 53.2496 109.7 53.1734L110.252 52.1133H111.19L109.921 54.2269V56.001H109.119V56.0021Z" fill="#585655"/>
<path d="M115.086 54.0587C115.086 54.3233 115.037 54.5744 114.94 54.811C114.843 55.0475 114.703 55.2551 114.52 55.4335C114.33 55.6172 114.118 55.7583 113.88 55.8558C113.642 55.9533 113.396 56.0021 113.142 56.0021C112.919 56.0021 112.702 55.9637 112.487 55.8869C112.274 55.8102 112.079 55.7002 111.9 55.556C111.67 55.3702 111.495 55.1482 111.373 54.8909C111.25 54.6325 111.19 54.3544 111.19 54.0577C111.19 53.791 111.238 53.541 111.334 53.3075C111.43 53.0741 111.572 52.8655 111.758 52.6829C111.941 52.5024 112.153 52.3623 112.394 52.2627C112.636 52.1631 112.885 52.1133 113.141 52.1133C113.395 52.1133 113.643 52.1631 113.883 52.2627C114.123 52.3623 114.335 52.5024 114.519 52.6829C114.704 52.8655 114.844 53.0741 114.94 53.3086C115.038 53.5441 115.086 53.7942 115.086 54.0587ZM113.142 55.2976C113.473 55.2976 113.746 55.1793 113.961 54.9438C114.177 54.7082 114.284 54.4136 114.284 54.0587C114.284 53.708 114.175 53.4123 113.957 53.1726C113.74 52.933 113.468 52.8126 113.142 52.8126C112.811 52.8126 112.537 52.9319 112.32 53.1706C112.102 53.4092 111.993 53.7049 111.993 54.0577C111.993 54.4157 112.1 54.7114 112.315 54.9448C112.528 55.1803 112.804 55.2976 113.142 55.2976Z" fill="#585655"/>
<path d="M119.537 52.1133V54.4701C119.537 54.9843 119.399 55.3681 119.123 55.6215C118.847 55.8749 118.43 56.0021 117.874 56.0021C117.309 56.0021 116.888 55.8749 116.612 55.6215C116.335 55.3681 116.198 54.9843 116.198 54.4701V52.1133H117.019V54.3429C117.019 54.6546 117.089 54.89 117.23 55.0479C117.371 55.2059 117.582 55.2844 117.861 55.2844C118.142 55.2844 118.356 55.2048 118.499 55.0469C118.643 54.8878 118.716 54.6535 118.716 54.3429V52.1133H119.537Z" fill="#585655"/>
<path d="M122.879 56.0021H121.93L120.919 54.1851V56.0021H120.096V52.1133H121.273C121.741 52.1133 122.092 52.2047 122.324 52.3887C122.557 52.5727 122.673 52.8482 122.673 53.2161C122.673 53.484 122.594 53.7115 122.434 53.902C122.275 54.0915 122.069 54.2025 121.817 54.2341L122.879 56.0021ZM120.919 53.7714H121.043C121.376 53.7714 121.595 53.7344 121.702 53.6614C121.809 53.5885 121.862 53.46 121.862 53.2771C121.862 53.0855 121.805 52.9505 121.69 52.8699C121.575 52.7894 121.359 52.7491 121.042 52.7491H120.918V53.7714H120.919Z" fill="#585655"/>
<path d="M125.104 56.001L125.674 52.1133H126.511L127.232 54.4022C127.248 54.4501 127.263 54.5197 127.281 54.6122C127.299 54.7037 127.316 54.8092 127.331 54.9279C127.345 54.8071 127.361 54.7004 127.377 54.6057C127.394 54.511 127.411 54.4414 127.426 54.3967L128.159 52.1133H128.984L129.557 56.001H128.797L128.524 53.6566C128.504 53.4836 128.491 53.3519 128.483 53.2637C128.477 53.1755 128.473 53.0928 128.473 53.0167C128.473 52.9764 128.473 52.9459 128.474 52.9252C128.475 52.9045 128.476 52.8871 128.478 52.8708C128.453 53.0232 128.428 53.1549 128.405 53.2648C128.382 53.3758 128.361 53.4596 128.342 53.5162L127.55 56.0021H127.1L126.321 53.5162C126.314 53.4934 126.299 53.4292 126.276 53.3247C126.253 53.2202 126.221 53.0678 126.179 52.8675V52.9818C126.179 53.1625 126.164 53.3834 126.133 53.6457L126.131 53.6566L125.86 56.001H125.104Z" fill="#585655"/>
<path d="M130.668 56.0021V52.1133H132.895V52.8144H131.476V53.6135H132.895V54.3201H131.476V55.2945H132.895V56.001H130.668V56.0021Z" fill="#585655"/>
<path d="M133.454 56.0021L134.71 52.1133H135.518L136.793 56.0021H135.989L135.721 55.1758H134.441L134.211 56.0021H133.454ZM135.557 54.5226L135.187 53.2662C135.177 53.2292 135.163 53.165 135.146 53.0746C135.129 52.9842 135.112 52.8732 135.094 52.7426C135.075 52.8688 135.055 52.981 135.038 53.0811C135.019 53.1813 135.006 53.2477 134.997 53.2815L134.64 54.5215H135.557V54.5226Z" fill="#585655"/>
<path d="M137.35 56.0021V52.1133H138.207V55.2955H139.576V56.0021H137.35Z" fill="#585655"/>
<path d="M87.3154 16L79.6081 19.9653L82.2706 20.5414L80.5663 28.4462C79.2911 27.5662 77.6388 27.0683 76.9457 26.9218C74.1662 26.3349 71.5938 26.8436 69.2284 28.4462C68.0952 29.2163 67.132 30.1962 66.3329 31.385C65.5288 32.5738 64.9827 33.8418 64.6976 35.178C64.0885 37.9813 64.5436 40.6053 66.0579 43.0571C67.6461 45.6505 70.0435 47.2798 73.2411 47.9558C76.4066 48.6259 79.2971 48.0291 81.9065 46.1692C84.0979 44.6181 85.5161 42.3395 86.1623 39.3383L89.8569 22.2023L92.2653 22.7467L87.3154 16ZM75.6005 40.7498C73.8032 40.7498 72.3459 39.3076 72.3459 37.5289C72.3459 35.7502 73.8032 34.308 75.6005 34.308C77.3978 34.308 78.855 35.7502 78.855 37.5289C78.855 39.3076 77.3978 40.7498 75.6005 40.7498Z" fill="#585655"/>
<path d="M40.3047 29.332C41.2109 29.332 42.0941 29.5075 42.9523 29.8585C43.8106 30.2094 44.563 30.7064 45.2077 31.3485C46.524 32.6415 47.1827 34.1875 47.1827 35.9854C47.1827 36.851 47.0061 37.696 46.6528 38.5224C46.2995 39.3488 45.8005 40.0752 45.1558 40.6996C43.8136 42.0103 42.1789 42.6651 40.2518 42.6651C38.2818 42.6651 36.6162 41.9976 35.256 40.6614C33.9307 39.3507 33.2681 37.8009 33.2681 36.0108C33.2681 35.1197 33.4487 34.2571 33.811 33.4219C34.1732 32.5866 34.6812 31.8661 35.3349 31.2573C36.713 29.9741 38.3697 29.332 40.3047 29.332ZM40.1999 34.1365C39.694 34.1365 39.2628 34.312 38.9056 34.6629C38.5303 35.0315 38.3437 35.4727 38.3437 35.9863C38.3437 36.5 38.5313 36.9411 38.9056 37.3097C39.2718 37.6783 39.7169 37.8617 40.2398 37.8617C40.7718 37.8617 41.2159 37.6774 41.5741 37.3097C41.9314 36.9411 42.11 36.5049 42.11 35.9991C42.11 35.4766 41.9224 35.0354 41.5482 34.6757C41.1719 34.3159 40.7229 34.1365 40.1999 34.1365Z" fill="#585655"/>
<path d="M61.0969 42.6652H56.1352V35.5751C56.1352 34.984 56.0512 34.5812 55.8831 34.3675C55.6796 34.1018 55.3789 33.9695 54.9811 33.9695C54.5387 33.9695 54.2208 34.1234 54.0264 34.4322C53.8846 34.638 53.8138 35.0184 53.8138 35.5751V42.6652H48.8521V35.1762C48.8521 33.3696 49.3167 31.9826 50.2451 31.0141C51.3243 29.8927 52.9026 29.332 54.9811 29.332C57.2448 29.332 58.9081 29.9917 59.9691 31.3101C60.7203 32.2521 61.0969 33.5411 61.0969 35.1762V42.6652Z" fill="#585655"/>
<path d="M105.245 29.8867H110.077V37.1063C110.077 38.1799 109.939 39.0448 109.664 39.7C109.224 40.756 108.505 41.5439 107.506 42.0636C106.74 42.4634 105.848 42.6643 104.832 42.6643C103.73 42.6643 102.8 42.4342 102.043 41.9739C101.759 41.7955 101.422 41.5186 101.035 41.1432C100.579 41.5098 100.191 41.7818 99.8728 41.9613C99.0467 42.4293 98.1211 42.6643 97.0958 42.6643C95.4249 42.6643 94.0734 42.1319 93.0393 41.0671C92.1521 40.1554 91.7095 38.9463 91.7095 37.4378V29.8867H96.5408V36.6841C96.5408 37.5958 96.8681 38.0511 97.5227 38.0511C97.9269 38.0511 98.2118 37.8805 98.3754 37.5402C98.4444 37.3871 98.4789 37.0761 98.4789 36.608V29.8867H103.31V36.608C103.31 37.5704 103.642 38.0521 104.305 38.0521C104.709 38.0521 104.994 37.8649 105.158 37.4895C105.218 37.353 105.248 37.0254 105.248 36.5056V29.8867H105.245Z" fill="#585655"/>
<path d="M125.661 42.7827H120.719V37.2081C120.719 36.4121 120.591 35.8299 120.336 35.4613C119.984 34.9477 119.456 34.6908 118.751 34.6908C118.258 34.6908 117.83 34.8496 117.469 35.1662C117.073 35.5084 116.874 35.9495 116.874 36.4886C116.874 37.0199 117.055 37.461 117.416 37.8119C117.768 38.1462 118.191 38.3128 118.684 38.3128C119.108 38.3128 119.517 38.2275 119.913 38.056V42.7827C119.464 43.0738 118.874 43.2198 118.143 43.2198C116.248 43.2198 114.659 42.4749 113.372 40.9849C112.289 39.7351 111.747 38.2795 111.747 36.618C111.747 34.6232 112.473 32.9784 113.927 31.6854C115.275 30.4866 116.89 29.8867 118.776 29.8867C120.978 29.8867 122.753 30.6787 124.101 32.2628C125.141 33.4871 125.66 35.0202 125.66 36.8611V42.7827H125.661Z" fill="#585655"/>
<path d="M129.745 48.2629V44.0979C130.408 44.3717 130.989 44.5076 131.486 44.5076C133.074 44.5076 134.104 43.6314 134.575 41.8809C133.72 42.3768 132.882 42.6242 132.062 42.6242C130.849 42.6242 129.85 42.1821 129.065 41.2981C128.28 40.4141 127.887 39.2885 127.887 37.9213V29.8867H132.782V36.7557C132.782 37.5165 133.105 37.8959 133.751 37.8959C134.371 37.8959 134.681 37.4774 134.681 36.6403V29.8867H139.575V41.2913C139.575 43.4182 138.964 45.1355 137.743 46.443C136.285 47.9979 134.522 48.7753 132.455 48.7753C131.546 48.7753 130.644 48.6042 129.745 48.2629Z" fill="#585655"/>
<path d="M80.0199 32.1761C79.7758 31.9614 79.5153 31.7578 79.2466 31.5703L78.9067 32.119C79.1567 32.2928 79.3985 32.4828 79.6251 32.6814L80.0199 32.1761Z" fill="white"/>
<path d="M77.7952 30.9563C77.2781 30.7154 76.7384 30.5491 76.19 30.4609L76.1255 31.1127C76.6338 31.1934 77.1354 31.3486 77.6163 31.572L77.7952 30.9563Z" fill="white"/>
<path d="M71.6761 32.0947L71.3832 31.5703C70.886 31.9195 70.4233 32.333 70.0063 32.799L70.3962 33.237C70.7839 32.8025 71.2154 32.4182 71.6761 32.0947Z" fill="white"/>
<path d="M70.0063 43.6863C70.4274 44.1508 70.8941 44.561 71.393 44.9049L71.6761 44.3695C71.2125 44.0503 70.779 43.6697 70.388 43.2383L70.0063 43.6863Z" fill="white"/>
<path d="M72.7876 45.0161C73.3125 45.246 73.8589 45.3966 74.4113 45.4627L74.4574 44.7664C73.9443 44.7056 73.4371 44.5669 72.9495 44.3516L72.7876 45.0161Z" fill="white"/>
<path d="M74.4015 31.1445L74.4574 31.138L74.4309 30.7962L74.3516 30.4609C73.8198 30.535 73.2939 30.691 72.7876 30.921L72.956 31.572C73.4251 31.3563 73.9128 31.2134 74.4015 31.1445Z" fill="white"/>
<path d="M68.3345 40.6391C68.513 41.1609 68.7483 41.661 69.0347 42.1276L69.4476 41.8441C69.1817 41.4109 68.9631 40.9453 68.7976 40.4609L68.3345 40.6391Z" fill="white"/>
<path d="M69.4476 34.0751L69.0261 33.7969C68.7419 34.2669 68.5095 34.7693 68.3345 35.2914L68.804 35.4635C68.9677 34.9797 69.1842 34.5127 69.4476 34.0751Z" fill="white"/>
<path d="M68.2873 37.9119C68.2873 37.7914 68.2902 37.67 68.296 37.5485C68.3027 37.4261 68.3123 37.3047 68.3238 37.1842L67.8182 37.1289C67.8047 37.2582 67.7942 37.3886 67.7874 37.5199C67.7807 37.6512 67.7778 37.7815 67.7778 37.9109C67.7778 38.2051 67.7951 38.5033 67.8288 38.7955L68.3344 38.7343C68.3027 38.4628 68.2873 38.1854 68.2873 37.9119Z" fill="white"/>
<path d="M82.6106 36.6109L82.2505 38.2383L82.7937 38.3593L83.1538 36.7318L82.6106 36.6109Z" fill="white"/>
<path d="M84.2786 27.1695L83.9185 28.7969L84.4617 28.9178L84.8218 27.2904L84.2786 27.1695Z" fill="white"/>
<path d="M83.1653 33.2788L82.8052 34.9062L83.3484 35.0272L83.7085 33.3998L83.1653 33.2788Z" fill="white"/>
<path d="M83.7219 30.5015L83.3618 32.1289L83.905 32.2499L84.2652 30.6225L83.7219 30.5015Z" fill="white"/>
<path d="M76.1255 44.84L76.1988 45.4627C76.7453 45.3664 77.283 45.1881 77.7952 44.9326L77.5987 44.3516C77.1256 44.5869 76.6299 44.752 76.1255 44.84Z" fill="white"/>
<path d="M81.1333 41.328L81.6066 41.5729C81.8768 41.0889 82.0921 40.5747 82.2465 40.0458L81.7285 39.9062C81.5853 40.399 81.3852 40.8772 81.1333 41.328Z" fill="white"/>
<path d="M78.9067 43.8748L79.2405 44.3541C79.7277 43.9856 80.1773 43.5556 80.5765 43.0762L80.1472 42.6875C79.777 43.1333 79.3596 43.532 78.9067 43.8748Z" fill="white"/>
<path d="M85.3939 23.8188L85.0298 25.4453L85.5733 25.5648L85.9374 23.9383L85.3939 23.8188Z" fill="white"/>
<path d="M85.9505 21.0375L85.5864 22.6641L86.13 22.7836L86.4941 21.157L85.9505 21.0375Z" fill="white"/>
<path d="M86.507 18.2601L86.1431 19.8867L86.6866 20.0062L87.0506 18.3796L86.507 18.2601Z" fill="white"/>
</g>
<defs>
<clipPath id="clip0_1407_7447">
<rect width="107.2" height="40" fill="white" transform="translate(32.6001 16)"/>
</clipPath>
</defs>
</svg>
