<svg width="56" height="119" viewBox="0 0 56 119" fill="none" xmlns="http://www.w3.org/2000/svg">
<path d="M40.4 118.08L36.8 117.72C34.28 117.24 32.78 116.1 32.3 114.3C32.3 113.82 31.82 113.34 30.86 112.86C30.14 112.86 29.24 112.26 28.16 111.06C27.08 109.74 26.48 107.4 26.36 104.04C26.36 100.56 26.36 97.02 26.36 93.42C26.36 89.82 26.42 87.84 26.54 87.48C26.9 87.48 26.9 86.76 26.54 85.32C26.06 80.64 26 77.46 26.36 75.78C26.72 73.98 26.96 68.04 27.08 57.96C27.2 47.88 26.78 42.6 25.82 42.12C25.7 41.88 25.28 41.88 24.56 42.12C23.84 42.24 23.3 42.48 22.94 42.84C21.98 44.76 21.38 45.72 21.14 45.72C20.66 46.2 20.06 46.68 19.34 47.16C17.18 49.68 13.82 50.4 9.26 49.32C6.02 48.84 3.92 48.18 2.96 47.34C2.12 46.5 1.58 45.3 1.34 43.74C1.1 42.06 1.76 40.68 3.32 39.6C6.44 37.44 8.66 35.04 9.98 32.4L12.5 29.52L14.48 28.08C14.48 27.84 14.84 27.42 15.56 26.82C16.28 26.22 17 25.62 17.72 25.02C18.56 24.3 18.98 23.64 18.98 23.04L20.78 20.16C21.98 18.96 22.58 17.88 22.58 16.92C22.7 16.92 23.12 16.56 23.84 15.84C24.56 15.12 25.22 14.58 25.82 14.22C26.66 12.54 28.34 10.32 30.86 7.55999C32.42 5.27999 33.2 4.13999 33.2 4.13999C33.32 4.02 33.56 3.83999 33.92 3.59999C34.4 3.35999 35 3.12 35.72 2.88C36.44 2.52 37.16 2.1 37.88 1.61999C38.72 1.13999 39.38 0.899993 39.86 0.899993C40.46 0.779994 41.78 0.839993 43.82 1.07999C45.86 1.31999 46.88 1.55999 46.88 1.79999C46.88 2.04 47.06 2.46 47.42 3.06C47.78 3.54 48.2 3.78 48.68 3.78C49.16 3.78 49.7 4.2 50.3 5.03999C50.78 5.03999 51.86 5.45999 53.54 6.3C54.5 7.5 55.04 8.4 55.16 9C54.44 9.36 54.08 10.08 54.08 11.16L52.46 25.92C50.9 32.64 49.76 48.42 49.04 73.26C48.56 76.86 48.32 79.74 48.32 81.9C48.32 83.94 48.08 87.18 47.6 91.62C47.12 96.06 46.88 100.44 46.88 104.76C46.88 109.08 46.76 111.96 46.52 113.4C45.68 116.88 43.64 118.44 40.4 118.08Z" fill="#F6E7B9"/>
</svg>
