<svg width="65" height="64" viewBox="0 0 65 64" fill="none" xmlns="http://www.w3.org/2000/svg">
<rect x="0.5" width="64" height="64" rx="12" fill="#E5F8F5"/>
<path d="M25 21.3438V23.5H32.5H40V21.3438V19.1875H32.5H25V21.3438Z" fill="#00B899"/>
<path d="M24.7625 25.9187C23.175 28.2563 22.15 31.3313 21.8813 34.5188C21.8375 35 21.8125 37.2188 21.8125 40.0687V44.8125H29.3063H36.8063L36.8313 39.5812C36.8562 33.925 36.8562 33.9688 37.2188 32.15C37.6313 30.1062 38.5688 27.775 39.5938 26.2312C39.8188 25.8937 40 25.6 40 25.5875C40 25.575 36.625 25.5625 32.5 25.5625H25.0063L24.7625 25.9187Z" fill="#00B899"/>
<path d="M40.9148 28.0187C40.0023 29.6438 39.3898 31.4812 39.0586 33.5938C38.9211 34.4375 38.9148 34.6562 38.8961 39.6375L38.8711 44.8125H41.0336H43.1961L43.1711 39.5812C43.1523 35.05 43.1336 34.2437 43.0398 33.625C42.7273 31.5 42.2398 29.7875 41.4961 28.1875C41.3523 27.875 41.2086 27.625 41.1836 27.625C41.1586 27.625 41.0336 27.8 40.9148 28.0187Z" fill="#00B899"/>
</svg>
