<svg width="172" height="72" viewBox="0 0 172 72" fill="none" xmlns="http://www.w3.org/2000/svg">
<g clip-path="url(#clip0_1407_7493)">
<path fill-rule="evenodd" clip-rule="evenodd" d="M117.388 33.8583C119.208 32.325 120.115 30.8043 119.637 29.7634C119.461 29.3815 119.116 29.0935 118.61 28.9065C118.414 28.8367 118.212 28.7837 118.007 28.7481C118.01 28.7296 118.013 28.7123 118.013 28.6932C118.008 28.5352 117.943 28.385 117.831 28.2736C117.72 28.1622 117.57 28.0979 117.412 28.0939C117.255 28.09 117.102 28.1466 116.984 28.2522C116.867 28.3579 116.795 28.5045 116.782 28.6621C116.591 28.6651 116.396 28.674 116.192 28.6896C116.291 27.6762 116.238 26.8103 116.012 26.1763C115.832 25.6666 115.549 25.3171 115.171 25.1366C114.793 24.9562 114.344 24.9568 113.837 25.1378C112.979 25.4444 111.989 26.2648 111.003 27.4354C110.006 26.26 109.008 25.4372 108.144 25.133C107.636 24.9544 107.187 24.9556 106.811 25.1372C106.432 25.3189 106.151 25.6702 105.973 26.1805C105.756 26.7996 105.703 27.6361 105.795 28.6155C105.501 28.5868 105.222 28.5737 104.956 28.5725C104.906 28.4515 104.818 28.3497 104.707 28.2818C104.595 28.2139 104.464 28.1835 104.334 28.1949C104.204 28.2062 104.081 28.2589 103.983 28.3451C103.884 28.4314 103.816 28.5468 103.787 28.6746C103.636 28.705 103.487 28.7454 103.341 28.7954C102.832 28.9752 102.484 29.2584 102.303 29.6373C102.122 30.0161 102.122 30.4667 102.301 30.9764C102.598 31.8183 103.381 32.7869 104.501 33.7567C102.748 35.2613 101.881 36.7444 102.351 37.7668C102.763 38.6619 104.109 39.0049 105.969 38.8322C105.955 38.9756 105.945 39.116 105.937 39.2535C105.693 39.3365 105.515 39.5648 105.515 39.8385C105.515 40.1199 105.703 40.3541 105.959 40.43C106.065 41.4136 106.406 42.1103 106.997 42.3917C107.376 42.5728 107.824 42.5716 108.331 42.3905C109.149 42.0989 110.083 41.3425 111.022 40.2621C112.549 41.9998 114.042 42.8471 115.053 42.3595C115.626 42.084 115.961 41.4178 116.073 40.4796C116.163 40.5063 116.258 40.5118 116.351 40.4957C116.444 40.4796 116.532 40.4423 116.608 40.3868C116.684 40.3312 116.746 40.2588 116.79 40.1752C116.834 40.0915 116.858 39.9989 116.861 39.9045C116.863 39.81 116.844 39.7162 116.805 39.6304C116.765 39.5446 116.707 39.4689 116.634 39.4094C116.561 39.3498 116.475 39.3079 116.383 39.2869C116.291 39.2659 116.196 39.2663 116.104 39.2881C116.098 39.1623 116.089 39.0366 116.078 38.9111C117.025 38.9941 117.837 38.9368 118.439 38.7235C118.948 38.5436 119.296 38.2604 119.477 37.8809C119.657 37.5027 119.658 37.0521 119.479 36.5424C119.191 35.7274 118.45 34.7958 117.388 33.8583Z" fill="#585655"/>
<path fill-rule="evenodd" clip-rule="evenodd" d="M108.897 36.638C109.419 36.9013 109.95 37.148 110.488 37.3777C110.168 37.4967 109.851 37.6078 109.539 37.7094C109.315 37.3581 109.101 37.0008 108.897 36.638ZM109.533 36.5974C109.227 36.4506 108.924 36.2978 108.624 36.139C108.243 35.4276 107.896 34.6986 107.583 33.9544C107.936 33.0626 108.339 32.1912 108.789 31.3444C109.499 30.9808 110.226 30.6508 110.967 30.3555C111.755 30.6836 112.528 31.0504 113.281 31.4543C113.707 32.2624 114.092 33.0924 114.432 33.9407C114.133 34.6615 113.801 35.3687 113.439 36.0602C112.621 36.4912 111.779 36.8762 110.918 37.2134C110.451 37.0218 109.989 36.8164 109.533 36.5974Z" fill="white"/>
<path fill-rule="evenodd" clip-rule="evenodd" d="M37.9577 47.8774H34.626V47.7173C35.1398 47.6856 35.5113 47.6599 35.5113 47.2656V44.1834C35.5113 43.7634 35.0642 43.7502 34.626 43.7317V43.5716H37.9577V43.7317C37.5106 43.7443 37.0533 43.7502 37.0533 44.1834V47.2656C37.0533 47.6731 37.4344 47.6928 37.9577 47.7173V47.8774ZM40.7649 47.7173C41.3359 47.6731 41.6026 47.6289 41.6026 47.2082V44.19C41.0692 43.7502 40.9174 43.7311 40.7935 43.7311V43.571H42.8017L46.1049 46.2904H46.1239V44.3609C46.1239 43.9791 46.0096 43.7694 45.2386 43.7305V43.5704H47.2855V43.7305C46.6002 43.7879 46.5431 43.9337 46.5431 44.2396V47.9904H46.2764L42.0408 44.5396H42.0218V47.0863C42.0218 47.5452 42.2218 47.6665 42.9262 47.7167V47.8768H40.7655V47.7173H40.7649ZM56.4978 47.0684C55.803 47.5972 55.0606 47.9975 53.8424 47.9975C51.6247 47.9975 50.425 46.9542 50.425 45.7627C50.425 44.4709 51.7961 43.4766 53.7948 43.4766C54.6516 43.4766 55.3845 43.7891 55.6316 43.7891C55.8888 43.7891 55.9745 43.6546 56.0692 43.4963H56.3264V44.9865H56.0888C55.7554 44.432 54.9564 43.6875 53.871 43.6875C52.4814 43.6875 52.1099 44.6609 52.1099 45.737C52.1099 46.1201 52.167 46.7314 52.5195 47.1389C52.919 47.5978 53.6716 47.6934 53.9663 47.6934C54.7087 47.6934 55.4226 47.5022 56.2127 46.9094L56.4978 47.0684ZM66.3776 45.737C66.3776 47.0743 64.9594 47.9975 63.0083 47.9975C61.0573 47.9975 59.6385 47.0743 59.6385 45.737C59.6385 44.3496 61.171 43.4766 63.0083 43.4766C64.8451 43.4766 66.3776 44.3496 66.3776 45.737Z" fill="#585655"/>
<path fill-rule="evenodd" clip-rule="evenodd" d="M61.3252 45.741C61.3252 46.2955 61.3824 47.7917 63.0101 47.7917C64.6373 47.7917 64.6945 46.2955 64.6945 45.741C64.6945 44.8118 64.3426 43.6914 63.0101 43.6914C61.6777 43.6914 61.3252 44.8118 61.3252 45.741Z" fill="white"/>
<path fill-rule="evenodd" clip-rule="evenodd" d="M75.9907 47.8756H74.0397L72.069 45.8822H71.8118V47.1299C71.8118 47.6402 72.0213 47.6587 72.6495 47.7155V47.8756H69.4326V47.7155C70.0798 47.6653 70.2697 47.6455 70.2697 47.1299V44.316C70.2697 43.7687 69.9744 43.7555 69.4326 43.7305V43.5703H72.497C73.1633 43.5703 75.181 43.6217 75.181 44.6919C75.181 45.4753 74.201 45.6725 73.6866 45.7806L75.6002 47.5953C75.7335 47.7095 75.8758 47.7155 75.9901 47.7155V47.8756H75.9907Z" fill="#585655"/>
<path fill-rule="evenodd" clip-rule="evenodd" d="M71.8135 45.6797C73.0608 45.6737 73.5556 45.5339 73.5556 44.7063C73.5556 44.0621 73.1656 43.7891 72.4035 43.7891C71.8802 43.7891 71.8611 43.859 71.8135 44.0562V45.6797Z" fill="white"/>
<path fill-rule="evenodd" clip-rule="evenodd" d="M78.6832 47.7154C79.1494 47.6653 79.1684 47.6581 79.2351 47.627C79.3494 47.5696 79.4828 47.4872 79.4828 47.1299V44.316C79.4828 43.7806 79.1881 43.7615 78.6832 43.7305V43.5703H81.7482C82.5097 43.5703 84.2417 43.6659 84.2417 44.7421C84.2417 44.965 84.1369 45.4179 83.3754 45.7035C82.7663 45.9336 82.2805 45.9396 81.0242 45.9449V47.1293C81.0242 47.6449 81.2052 47.6581 81.8619 47.7149V47.875H78.6826V47.7154H78.6832Z" fill="#585655"/>
<path fill-rule="evenodd" clip-rule="evenodd" d="M81.0225 45.7308C82.1745 45.7428 82.6026 45.5582 82.6026 44.7694C82.6026 44.0434 82.2602 43.8008 81.4797 43.8008C81.1564 43.8008 81.0326 43.8838 81.0225 44.0237V45.7308Z" fill="white"/>
<path fill-rule="evenodd" clip-rule="evenodd" d="M93.8899 45.737C93.8899 47.0743 92.4723 47.9975 90.5212 47.9975C88.5702 47.9975 87.1514 47.0743 87.1514 45.737C87.1514 44.3496 88.6839 43.4766 90.5212 43.4766C92.3568 43.4766 93.8899 44.3496 93.8899 45.737Z" fill="#585655"/>
<path fill-rule="evenodd" clip-rule="evenodd" d="M88.8389 45.741C88.8389 46.2955 88.896 47.7917 90.5238 47.7917C92.1504 47.7917 92.2075 46.2955 92.2075 45.741C92.2075 44.8118 91.8563 43.6914 90.5238 43.6914C89.1913 43.6914 88.8389 44.8118 88.8389 45.741Z" fill="white"/>
<path fill-rule="evenodd" clip-rule="evenodd" d="M103.506 47.8756H101.555L99.5846 45.8822H99.3274V47.1299C99.3274 47.6402 99.537 47.6587 100.164 47.7155V47.8756H96.9482V47.7155C97.5948 47.6653 97.7853 47.6455 97.7853 47.1299V44.316C97.7853 43.7687 97.49 43.7555 96.9482 43.7305V43.5703H100.012C100.678 43.5703 102.696 43.6217 102.696 44.6919C102.696 45.4753 101.716 45.6725 101.202 45.7806L103.116 47.5953C103.249 47.7095 103.391 47.7155 103.505 47.7155V47.8756H103.506Z" fill="#585655"/>
<path fill-rule="evenodd" clip-rule="evenodd" d="M99.3252 45.6797C100.572 45.6737 101.067 45.5339 101.067 44.7063C101.067 44.0621 100.677 43.7891 99.9146 43.7891C99.3913 43.7891 99.3728 43.859 99.3252 44.0562V45.6797Z" fill="white"/>
<path fill-rule="evenodd" clip-rule="evenodd" d="M112.604 47.8787H109.52V47.7186C110.111 47.6869 110.282 47.6815 110.282 47.4712C110.282 47.2985 109.977 46.827 109.843 46.6239H107.702C107.435 47.0828 107.284 47.3427 107.284 47.4455C107.284 47.6869 107.74 47.706 108.064 47.7186V47.8787H106.132V47.7186C106.646 47.6684 106.78 47.4515 107.064 46.974L109.177 43.4844H109.445L111.566 46.8336C111.995 47.5154 112.147 47.7311 112.604 47.718V47.8787H112.604Z" fill="#585655"/>
<path fill-rule="evenodd" clip-rule="evenodd" d="M109.702 46.3757L108.74 44.8281L107.845 46.3757H109.702Z" fill="white"/>
<path fill-rule="evenodd" clip-rule="evenodd" d="M120.006 47.8762H116.609V47.7161C117.304 47.679 117.532 47.6659 117.532 47.1305V43.7753C116.866 43.801 115.885 43.8326 115.695 44.8514H115.419L115.448 43.5709H121.159L121.177 44.8514H120.902C120.711 43.8326 119.731 43.801 119.074 43.7753V47.1305C119.074 47.6718 119.303 47.685 120.006 47.7161V47.8762ZM123.782 43.5709H129.275V44.8514H129.038C128.818 43.9468 128.142 43.7884 126.857 43.7884C126.334 43.7884 126.163 43.8141 126.163 44.0872V45.5649C127.077 45.5721 127.562 45.406 127.705 44.616H127.953V46.7684H127.705C127.59 45.9724 127.105 45.7824 126.163 45.7824V47.3229C126.163 47.6031 126.344 47.6802 126.962 47.6802C127.895 47.6802 128.866 47.5147 129.466 46.5526H129.732L129.351 47.8774H123.782V47.7173C124.325 47.6802 124.621 47.6599 124.621 47.2655V44.1834C124.621 43.7633 124.22 43.7502 123.782 43.7316V43.5709ZM132.799 47.7161C133.399 47.7161 133.588 47.5314 133.588 47.296V44.1565C133.588 43.7693 133.17 43.7561 132.799 43.7305V43.5703H135.701C138.367 43.5703 139.233 44.6788 139.233 45.6593C139.233 46.8311 138.205 47.8242 135.806 47.8756H132.799V47.7161Z" fill="#585655"/>
<path fill-rule="evenodd" clip-rule="evenodd" d="M135.128 47.2847C135.128 47.5404 135.215 47.6546 135.671 47.6546C136.738 47.6546 137.575 47.247 137.575 45.7251C137.575 45.1449 137.356 43.7891 135.719 43.7891C135.11 43.7891 135.119 43.948 135.128 44.0878V47.2847Z" fill="white"/>
<path fill-rule="evenodd" clip-rule="evenodd" d="M78.9087 26.375V33.3011L75.7353 26.375H68.9671V41.427H74.2552V32.9742L78.5646 41.427H84.1963V26.375H78.9087ZM61.6689 41.427H67.4596L63.3348 26.375H54.5303L50.3662 41.427H56.2384L56.7731 39.0016H61.1104L61.6689 41.427Z" fill="#585655"/>
<path fill-rule="evenodd" clip-rule="evenodd" d="M57.5205 35.4608L58.8923 28.9727L60.3265 35.4608H57.5205Z" fill="white"/>
<path fill-rule="evenodd" clip-rule="evenodd" d="M49.8507 41.4281L45.6069 35.2615C50.049 34.983 49.7317 30.7632 49.7317 30.7632C49.4256 26.189 44.6947 26.3761 44.6947 26.3761H34.5947V41.4281H39.8829V36.0484L43.5052 41.4281H49.8507Z" fill="#585655"/>
<path fill-rule="evenodd" clip-rule="evenodd" d="M42.4735 33.6712H39.8818V30.3674H42.4735C44.1721 30.3471 44.1388 31.8798 44.1388 31.8798C44.2585 33.8092 42.4735 33.6712 42.4735 33.6712Z" fill="white"/>
<path fill-rule="evenodd" clip-rule="evenodd" d="M95.7003 26.3784H86.9482V41.4304H95.3431C95.3431 41.4304 102.07 41.6311 101.888 34.0693C101.888 34.0693 102.218 26.1889 95.7003 26.3784Z" fill="#585655"/>
<path fill-rule="evenodd" clip-rule="evenodd" d="M96.2913 35.7399C96.2913 35.7399 96.0532 37.664 94.0295 37.6245H92.2314V30.95H93.9503C93.9503 30.95 96.0925 30.8443 96.2913 33.0337C96.2913 33.0331 96.4098 34.8245 96.2913 35.7399Z" fill="white"/>
<path fill-rule="evenodd" clip-rule="evenodd" d="M110.971 32.2891C110.682 32.2891 110.4 32.3749 110.161 32.5357C109.921 32.6965 109.734 32.925 109.624 33.1924C109.513 33.4598 109.484 33.7541 109.541 34.0379C109.597 34.3218 109.736 34.5826 109.94 34.7872C110.144 34.9919 110.403 35.1312 110.686 35.1877C110.969 35.2442 111.262 35.2152 111.529 35.1044C111.795 34.9937 112.023 34.8061 112.183 34.5655C112.343 34.3248 112.429 34.0419 112.429 33.7524C112.429 33.5603 112.391 33.3699 112.318 33.1923C112.245 33.0148 112.137 32.8534 112.002 32.7175C111.867 32.5816 111.706 32.4738 111.529 32.4003C111.352 32.3268 111.162 32.289 110.971 32.2891Z" fill="#585655"/>
<path fill-rule="evenodd" clip-rule="evenodd" d="M116.152 29.0064C116.392 28.9861 116.624 28.9747 116.844 28.9729C116.946 29.1737 117.152 29.3123 117.391 29.3123C117.6 29.3123 117.782 29.2084 117.895 29.0506C118.113 29.0883 118.316 29.1385 118.496 29.2048C118.92 29.3619 119.205 29.5938 119.344 29.8955C119.756 30.7919 118.846 32.202 117.129 33.6379C116.568 33.1676 115.98 32.7303 115.369 32.3281C115.761 31.1402 116.026 30.0091 116.152 29.0064ZM108.557 31.102C107.983 31.3959 107.421 31.7117 106.871 32.0485C106.511 30.9448 106.264 29.8985 106.144 28.9712C107.106 29.0966 108.194 29.3584 109.341 29.7426C109.073 30.1752 108.811 30.6305 108.557 31.102ZM109.648 29.8471C109.943 29.9505 110.243 30.0629 110.544 30.1818C110.041 30.3904 109.544 30.6144 109.055 30.8534C109.248 30.5062 109.446 30.171 109.648 29.8471ZM107.41 33.5292C107.255 33.1453 107.11 32.7571 106.977 32.3652C107.408 32.0964 107.848 31.8415 108.296 31.6009C107.975 32.2316 107.679 32.8749 107.41 33.5292ZM107.419 34.3765C107.636 34.8748 107.876 35.3804 108.122 35.8644C107.779 35.6729 107.439 35.4735 107.105 35.2662C107.201 34.9728 107.307 34.6759 107.419 34.3765ZM107.239 33.9516C107.091 34.3269 106.952 34.7057 106.823 35.0876C106.189 34.6836 105.58 34.2432 104.997 33.7688C105.543 33.328 106.112 32.9177 106.703 32.5397C106.862 33.0039 107.042 33.4754 107.239 33.9516ZM107.006 35.5763C107.447 35.8494 107.909 36.1153 108.387 36.3717C108.657 36.8748 108.934 37.3552 109.218 37.8082C108.188 38.1254 107.212 38.3447 106.341 38.4583C106.457 37.5859 106.682 36.6095 107.006 35.5763ZM114.037 32.2493C113.953 32.0741 113.867 31.8999 113.779 31.7264C114.191 31.9589 114.596 32.2032 114.993 32.459C114.873 32.8068 114.743 33.1587 114.604 33.5142C114.426 33.0878 114.237 32.666 114.037 32.2493ZM114.905 35.2244C114.591 35.4174 114.267 35.6086 113.93 35.7944C114.166 35.3254 114.391 34.8408 114.597 34.3627C114.706 34.6532 114.81 34.94 114.905 35.2244ZM113.515 31.2185C113.249 30.718 112.965 30.2268 112.665 29.7456C113.804 29.3864 114.882 29.1468 115.833 29.0387C115.709 29.978 115.46 31.0357 115.097 32.1507C114.581 31.8202 114.054 31.5092 113.515 31.2185ZM113.009 30.9502C112.478 30.6782 111.939 30.4241 111.392 30.1883C111.711 30.0675 112.033 29.9531 112.356 29.8454C112.578 30.1991 112.796 30.569 113.009 30.9502ZM112.434 36.9089C112.685 36.7923 112.932 36.6728 113.174 36.5521C112.944 36.9689 112.702 37.3789 112.449 37.7819C112.079 37.6576 111.712 37.5245 111.348 37.3827C111.713 37.2333 112.076 37.0754 112.434 36.9089ZM113.671 36.2976C114.125 36.0594 114.57 35.8075 115.009 35.5423C115.354 36.6274 115.589 37.6522 115.703 38.5569C114.814 38.4457 113.814 38.2175 112.759 37.8822C113.082 37.3654 113.386 36.8368 113.671 36.2976ZM114.776 33.9361C114.954 33.4987 115.118 33.0649 115.265 32.6371C115.856 33.0314 116.399 33.4354 116.882 33.8393C116.339 34.2724 115.773 34.6755 115.187 35.0469C115.062 34.6824 114.925 34.312 114.776 33.9361ZM113.937 25.4385C114.789 25.135 115.406 25.4289 115.709 26.2834C115.925 26.8935 115.972 27.7325 115.871 28.7202C114.856 28.8289 113.703 29.0841 112.491 29.4695C112.094 28.8496 111.663 28.2522 111.2 27.6799C112.158 26.5338 113.115 25.7325 113.937 25.4385ZM110.998 27.9273C111.397 28.422 111.795 28.9729 112.181 29.5705C111.782 29.7037 111.377 29.8507 110.97 30.0109C110.591 29.8554 110.208 29.7096 109.821 29.5735C110.185 29.0046 110.578 28.4551 110.998 27.9273ZM106.268 26.2864C106.567 25.4307 107.183 25.1338 108.035 25.4343C108.865 25.7265 109.829 26.5296 110.796 27.6811C110.336 28.2521 109.908 28.8486 109.515 29.4677C108.294 29.056 107.132 28.7787 106.108 28.6515C106.011 27.6954 106.059 26.8822 106.268 26.2864ZM102.596 30.8707C102.295 30.0157 102.591 29.3972 103.442 29.0954C103.558 29.0558 103.677 29.0229 103.797 28.9968C103.876 29.2484 104.107 29.4325 104.383 29.4325C104.699 29.4325 104.956 29.194 104.993 28.8869C105.256 28.8893 105.534 28.9036 105.825 28.9335C105.946 29.9236 106.208 31.0428 106.594 32.2206C105.95 32.6267 105.33 33.0717 104.739 33.5531C103.643 32.6132 102.88 31.678 102.596 30.8707ZM102.635 37.6337C102.23 36.7535 103.097 35.3804 104.753 33.9726C105.379 34.4871 106.036 34.9626 106.72 35.3965C106.361 36.5145 106.119 37.5638 106.002 38.4965C104.258 38.674 102.987 38.4021 102.635 37.6337ZM108.221 42.0907C107.796 42.2425 107.428 42.2473 107.129 42.1045C106.649 41.8756 106.371 41.2805 106.279 40.4367C106.546 40.368 106.745 40.1272 106.745 39.838C106.745 39.6976 106.697 39.5615 106.609 39.4519C106.522 39.3423 106.4 39.2657 106.264 39.2345C106.272 39.0923 106.283 38.9465 106.3 38.7959C107.234 38.6818 108.283 38.4469 109.399 38.0932C109.829 38.7654 110.301 39.4099 110.812 40.0226C109.904 41.0767 109.004 41.8123 108.221 42.0907ZM109.72 37.9898C110.113 37.8589 110.515 37.7143 110.921 37.5542C111.377 37.7388 111.829 37.9067 112.274 38.0561C111.891 38.6486 111.475 39.2193 111.028 39.7657C110.559 39.1996 110.122 38.6067 109.72 37.9898ZM114.911 42.0722C114.042 42.4911 112.661 41.6438 111.234 40.0077C111.72 39.4185 112.17 38.8007 112.583 38.1577C113.714 38.5192 114.789 38.7648 115.74 38.8766C115.753 39.014 115.764 39.1484 115.771 39.2805C115.639 39.3146 115.521 39.3918 115.438 39.5C115.354 39.6081 115.308 39.7411 115.308 39.878C115.308 40.1583 115.494 40.3913 115.747 40.4684C115.652 41.2775 115.377 41.8481 114.911 42.0722ZM118.328 38.4218C117.749 38.6274 116.963 38.68 116.04 38.5933C115.926 37.6295 115.676 36.5354 115.294 35.366C115.934 34.9673 116.55 34.5309 117.139 34.0592C118.176 34.9675 118.899 35.8668 119.174 36.6471C119.475 37.5022 119.18 38.1207 118.328 38.4218Z" fill="white"/>
<path fill-rule="evenodd" clip-rule="evenodd" d="M131.712 26.375L129.492 33.5485L127.192 26.375H120.052V41.427H125.341V33.086C126.058 35.215 128.064 41.427 128.064 41.427H130.841L133.695 33.086V41.427H138.984V26.375H131.712Z" fill="#585655"/>
</g>
<defs>
<clipPath id="clip0_1407_7493">
<rect width="107.2" height="40" fill="white" transform="translate(32.7998 16)"/>
</clipPath>
</defs>
</svg>
