<svg width="222" height="4" viewBox="0 0 222 4" fill="none" xmlns="http://www.w3.org/2000/svg">
<g clip-path="url(#clip0_1407_8419)">
<path fill-rule="evenodd" clip-rule="evenodd" d="M38.2856 2.72956C32.866 2.85465 27.2626 2.98392 21.7481 3.08283C19.7507 3.11849 10.521 3.24219 9.23555 3.24749C8.4893 3.25083 7.50778 3.29513 6.4697 3.34221C5.1832 3.40044 2.79097 3.50881 2.44158 3.39653C2.43411 3.39403 2.41734 3.37369 2.47591 3.32465C2.72735 3.11458 5.93651 2.93851 12.0145 2.80144C12.9345 2.78054 13.5979 2.76549 13.9493 2.74989C15.5499 2.67801 17.1635 2.61392 18.7843 2.55625C32.5934 2.41834 46.463 2.03889 59.9833 1.66835C62.8138 1.5909 65.6675 1.51287 68.5364 1.43626C105.369 0.721355 140.207 0.735296 172.304 1.4789C172.413 1.48168 172.521 1.4839 172.629 1.48669C137.979 1.50703 97.9995 1.65441 56.6914 2.34368C50.5487 2.4462 44.3142 2.59026 38.2856 2.72956ZM193.569 1.26716C194.983 1.3109 196.406 1.34823 197.832 1.38556C199.924 1.44017 202.087 1.49645 204.187 1.57446C204.862 1.59953 206.495 1.64328 208.384 1.69343C208.641 1.70039 208.911 1.70763 209.193 1.71515C208.48 1.70847 207.764 1.69704 207.063 1.68617C206.307 1.67419 205.552 1.6625 204.801 1.65581C195.254 1.57195 185.508 1.312 176.083 1.06098C173.646 0.995785 171.212 0.931144 168.784 0.869015C165.821 0.793791 162.853 0.726925 159.877 0.668418C164.656 0.716617 169.345 0.792964 174.041 0.898556C176.696 0.958177 179.422 0.998013 182.058 1.03674C185.852 1.09246 189.775 1.14986 193.569 1.26716ZM212.254 1.20809C209.978 1.08411 207.273 0.942849 204.474 0.836143C202.195 0.749497 199.847 0.693223 197.577 0.639174C196.309 0.609084 195.044 0.578994 193.79 0.54361C189.816 0.431611 185.744 0.373098 181.804 0.316263C179.308 0.280601 176.727 0.243278 174.21 0.193129C166.751 0.0443536 159.062 -0.0155483 150.004 0.00339688L144.686 0.0142611C128.253 0.0465794 111.262 0.0802802 94.5419 0.349414C90.02 0.42213 85.4718 0.514082 80.9267 0.617166C71.074 0.753126 61.499 0.923076 52.3462 1.10111C49.444 1.15766 46.5176 1.20698 43.5811 1.25657C33.6617 1.42373 23.4062 1.59703 13.5969 2.05896C13.2394 2.07567 12.5477 2.09266 11.6712 2.11439C10.8028 2.13585 9.93737 2.15841 9.09317 2.18404C7.82586 2.1924 6.55957 2.19908 5.29428 2.20326C4.98225 2.20438 4.7308 2.27515 4.73484 2.36152C4.73484 2.3643 4.73586 2.36708 4.73586 2.36959C2.45067 2.51112 0.813773 2.71952 0.546175 3.05664C0.41692 3.21962 0.560311 3.37257 0.960194 3.49878C2.21942 3.89662 6.24552 4 10.0929 4C12.5063 4 14.8501 3.95931 16.3951 3.92532C30.4798 3.84202 44.812 3.54949 58.6716 3.2667C65.0717 3.13604 71.69 3.00119 78.1841 2.88891C84.1076 2.78638 90.2553 2.6599 96.202 2.53759C118.725 2.07427 142.016 1.59535 164.083 2.12833C181.059 2.53843 200.658 2.70114 220.762 2.59861C220.947 2.59778 221.12 2.57159 221.223 2.52868L221.406 2.45234C221.549 2.39244 221.527 2.31331 221.352 2.26037C220.629 2.04278 219.579 1.92718 218.372 1.87034C218.411 1.68507 217.881 1.51512 212.254 1.20809Z" fill="url(#paint0_linear_1407_8419)"/>
</g>
<defs>
<linearGradient id="paint0_linear_1407_8419" x1="83.4656" y1="1.0068" x2="152.302" y2="1.0068" gradientUnits="userSpaceOnUse">
<stop stop-color="#01A287"/>
<stop offset="1" stop-color="#01B99A"/>
</linearGradient>
<clipPath id="clip0_1407_8419">
<rect width="221" height="4" fill="white" transform="translate(0.5)"/>
</clipPath>
</defs>
</svg>
