<svg width="172" height="72" viewBox="0 0 172 72" fill="none" xmlns="http://www.w3.org/2000/svg">
<path fill-rule="evenodd" clip-rule="evenodd" d="M41.7531 23.1992H64.9465L64.9536 25.6907H51.9659L45.8858 45.0381H39.5991L45.6792 25.6907H40.6349L41.7531 23.1992Z" fill="#585655"/>
<path fill-rule="evenodd" clip-rule="evenodd" d="M58.5944 43.1364C57.8158 43.1364 57.7781 42.0701 58.4814 39.9366C59.0299 38.2726 59.9839 37.0888 61.344 36.3847C61.8933 36.1015 62.4055 35.7523 62.8689 35.3448L61.3446 39.9681C60.649 42.0807 59.732 43.1364 58.5944 43.1364ZM66.6143 43.3282C66.0058 43.3282 65.8663 42.827 66.197 41.8245L69.4239 32.0333C70.2114 29.6441 68.5288 28.4492 64.3785 28.4492C60.0075 28.4492 57.4009 29.7295 56.5569 32.2894C56.4127 32.7269 56.2921 33.1966 56.1973 33.6972L58.7221 34.2575C58.7127 33.4364 58.7922 32.7749 58.9575 32.2731C59.4849 30.6729 60.636 29.8728 62.4128 29.8728C63.9494 29.8728 64.4456 30.7004 63.9006 32.3532C63.4857 33.6118 61.7931 34.6886 58.8233 35.5846C55.5888 36.556 53.5772 38.2404 52.7868 40.6413C51.7457 43.7978 52.8162 45.3764 56.0008 45.3764C57.7069 45.3764 59.2283 44.7266 60.566 43.4247C60.5931 44.6728 61.5453 45.2968 63.4221 45.2968C64.6892 45.2968 66.0823 45.0202 67.603 44.4652L67.5642 42.9925C67.1193 43.2165 66.8038 43.3282 66.6143 43.3282ZM88.208 28.4972L82.7553 45.0407H77.2914L78.1401 42.4649C76.2503 44.385 74.317 45.3442 72.3407 45.3442C69.6764 45.3442 68.8013 43.9575 69.7153 41.1847L73.7608 28.9136C75.6247 28.8282 77.4915 28.6896 79.3613 28.4972L75.2268 41.0408C74.8678 42.128 74.9973 42.6731 75.617 42.6731C77.2526 42.6731 78.6903 40.7963 79.928 37.0415L82.6076 28.9142C84.4615 28.8282 86.3283 28.6896 88.208 28.4972ZM100.062 34.7687H96.3203C96.657 34.14 96.9248 33.6762 97.1225 33.3773C97.4062 32.9398 97.6063 32.5444 97.7228 32.1935C97.9482 31.511 97.8311 31.1694 97.372 31.1694C97.0225 31.1694 96.5387 31.6204 95.9225 32.5216C95.3063 33.4229 94.8325 34.3745 94.503 35.3775L91.3178 45.0407H85.8533L91.1707 28.9136L92.2271 28.9294C93.4848 28.9294 94.9997 28.7849 96.7712 28.4972L95.8954 31.1531C97.3667 29.3827 98.7474 28.4972 100.035 28.4972C101.79 28.4972 102.327 29.5318 101.646 31.6011C101.465 32.145 101.175 32.7685 100.774 33.4732C100.539 33.9066 100.302 34.3384 100.062 34.7687ZM118.729 28.4972L113.276 45.0407H107.814L108.662 42.4649C106.771 44.385 104.839 45.3442 102.862 45.3442C100.198 45.3442 99.323 43.9575 100.237 41.1847L104.282 28.9136C106.145 28.8282 108.013 28.6896 109.884 28.4972L105.748 41.0408C105.39 42.128 105.52 42.6731 106.139 42.6731C107.774 42.6731 109.211 40.7963 110.449 37.0415L113.129 28.9142C114.983 28.8282 116.85 28.6896 118.729 28.4972ZM132.076 33.0568L129.263 33.5533C130.058 31.1431 129.407 29.9371 127.312 29.9371C126.024 29.9371 125.194 30.5027 124.822 31.6332C124.547 32.4649 125.361 33.3609 127.259 34.3213C130.164 35.8045 131.24 37.6872 130.487 39.9687C129.288 43.6066 126.528 45.4249 122.207 45.4249C117.637 45.4249 115.951 43.6072 117.15 39.9687L120.165 39.3611C120.019 39.6854 119.89 40.0166 119.777 40.3536C119.468 41.2923 119.566 42.1082 120.07 42.8018C120.576 43.4949 121.327 43.8417 122.326 43.8417C123.643 43.8417 124.498 43.2446 124.892 42.0491C125.155 41.2496 124.384 40.3647 122.578 39.3938C119.86 37.9217 118.882 36.0332 119.64 33.7294C120.143 32.2046 121.169 30.953 122.718 29.9775C124.267 29.0019 126.005 28.5141 127.93 28.5141C131.354 28.513 132.734 30.0278 132.076 33.0568ZM85.5379 45.7957H90.98V48.8651L90.2914 49.6009H86.2618L85.5726 48.7505L85.5379 45.7957Z" fill="#585655"/>
</svg>
