<svg width="117" height="4" viewBox="0 0 117 4" fill="none" xmlns="http://www.w3.org/2000/svg">
<path fill-rule="evenodd" clip-rule="evenodd" d="M20.0042 2.72956C17.1349 2.85465 14.1684 2.98392 11.249 3.08283C10.1915 3.11849 5.30525 3.24219 4.6247 3.24749C4.22963 3.25083 3.71 3.29513 3.16043 3.34221C2.47934 3.40044 1.21287 3.50881 1.02789 3.39653C1.02394 3.39403 1.01506 3.37369 1.04607 3.32465C1.17919 3.11458 2.87815 2.93851 6.09593 2.80144C6.58295 2.78054 6.93419 2.76549 7.12023 2.74989C7.96757 2.67801 8.82187 2.61392 9.67991 2.55625C16.9906 2.41834 24.3334 2.03889 31.4912 1.66835C32.9897 1.5909 34.5005 1.51287 36.0193 1.43626C55.5189 0.721355 73.9627 0.735296 90.9551 1.4789C91.0128 1.48168 91.07 1.4839 91.1272 1.48669C72.7828 1.50703 51.6174 1.65441 29.7484 2.34368C26.4964 2.4462 23.1957 2.59026 20.0042 2.72956ZM102.213 1.26716C102.962 1.3109 103.715 1.34823 104.47 1.38556C105.578 1.44017 106.723 1.49645 107.834 1.57446C108.192 1.59953 109.056 1.64328 110.056 1.69343C110.192 1.70039 110.335 1.70763 110.485 1.71515C110.107 1.70847 109.728 1.69704 109.357 1.68617C108.957 1.67419 108.557 1.6625 108.159 1.65581C103.105 1.57195 97.9455 1.312 92.9555 1.06098C91.6655 0.995785 90.3772 0.931144 89.0914 0.869015C87.5229 0.793791 85.9517 0.726925 84.3762 0.668418C86.906 0.716617 89.3887 0.792964 91.8746 0.898556C93.28 0.958177 94.7235 0.998013 96.1188 1.03674C98.1273 1.09246 100.204 1.14986 102.213 1.26716ZM112.105 1.20809C110.9 1.08411 109.468 0.942849 107.986 0.836143C106.78 0.749497 105.537 0.693223 104.335 0.639174C103.664 0.609084 102.994 0.578994 102.33 0.54361C100.226 0.431611 98.0701 0.373098 95.9846 0.316263C94.6631 0.280601 93.2966 0.243278 91.9639 0.193129C88.0153 0.0443536 83.9448 -0.0155483 79.1494 0.00339688L76.3337 0.0142611C67.6341 0.0465794 58.6388 0.0802802 49.7869 0.349414C47.3929 0.42213 44.9851 0.514082 42.5788 0.617166C37.3627 0.753126 32.2936 0.923076 27.448 1.10111C25.9115 1.15766 24.3622 1.20698 22.8076 1.25657C17.5562 1.42373 12.1268 1.59703 6.93365 2.05896C6.7444 2.07567 6.3782 2.09266 5.91417 2.11439C5.45441 2.13585 4.99625 2.15841 4.54933 2.18404C3.8784 2.1924 3.20801 2.19908 2.53815 2.20326C2.37296 2.20438 2.23984 2.27515 2.24198 2.36152C2.24198 2.3643 2.24251 2.36708 2.24251 2.36959C1.03271 2.51112 0.166115 2.71952 0.0244456 3.05664C-0.0439836 3.21962 0.0319296 3.37257 0.243632 3.49878C0.910282 3.89662 3.04174 4 5.07858 4C6.35628 4 7.59709 3.95931 8.41504 3.92532C15.8717 3.84202 23.4593 3.54949 30.7967 3.2667C34.185 3.13604 37.6888 3.00119 41.1269 2.88891C44.2628 2.78638 47.5175 2.6599 50.6658 2.53759C62.5896 2.07427 74.9202 1.59535 86.6029 2.12833C95.5901 2.53843 105.966 2.70114 116.609 2.59861C116.707 2.59778 116.799 2.57159 116.853 2.52868L116.95 2.45234C117.026 2.39244 117.014 2.31331 116.922 2.26037C116.539 2.04278 115.983 1.92718 115.344 1.87034C115.364 1.68507 115.084 1.51512 112.105 1.20809Z" fill="url(#paint0_linear_1407_8494)"/>
<defs>
<linearGradient id="paint0_linear_1407_8494" x1="43.923" y1="1.0068" x2="80.3656" y2="1.0068" gradientUnits="userSpaceOnUse">
<stop stop-color="#01A287"/>
<stop offset="1" stop-color="#01B99A"/>
</linearGradient>
</defs>
</svg>
