<svg width="69" height="119" viewBox="0 0 69 119" fill="none" xmlns="http://www.w3.org/2000/svg">
<path d="M32.74 117.98C31.66 118.46 29.86 118.7 27.34 118.7C24.82 118.7 21.88 118.4 18.52 117.8C11.8 116.36 7.42 114.02 5.38 110.78C2.74 106.46 1.42 101.84 1.42 96.92C0.94 92.6 3.16 90.44 8.08 90.44C9.16 90.44 10.42 90.8 11.86 91.52C13.42 92.24 14.5 92.9 15.1 93.5C15.82 93.86 17.32 94.16 19.6 94.4C26.68 95.36 33.34 93.32 39.58 88.28C43.66 85.28 46.06 82.82 46.78 80.9C47.62 78.86 48.04 76.46 48.04 73.7C48.04 70.94 46.84 69.32 44.44 68.84C42.04 68.24 39.46 68.36 36.7 69.2C34.06 69.92 31.3 70.46 28.42 70.82C25.54 71.9 23.08 71.3 21.04 69.02C19.12 66.74 18.58 62.54 19.42 56.42C19.9 53.9 20.74 52.04 21.94 50.84C25.42 49.64 28.84 48.8 32.2 48.32C33.16 48.2 34.66 47.18 36.7 45.26C38.86 43.34 41.26 40.46 43.9 36.62C46.66 32.66 47.62 29.24 46.78 26.36C45.94 23.48 43.84 22.4 40.48 23.12C38.08 23.36 36.34 23.66 35.26 24.02C34.3 24.26 31.96 25.22 28.24 26.9C22.96 28.46 19.18 29.24 16.9 29.24C14.74 29.24 13.12 28.52 12.04 27.08C9.04 21.8 7.3 17.96 6.82 15.56C6.46 13.16 6.7 10.94 7.54 8.89999C7.66 7.7 8.02 6.8 8.62 6.2C9.34 5.6 10.66 5.36 12.58 5.48C13.78 4.88 15.34 4.88 17.26 5.48C20.38 6.08 22.48 6.08 23.56 5.48L26.8 4.4C29.2 4.27999 30.82 3.79999 31.66 2.96C32.62 1.99999 35.2 1.64 39.4 1.88L42.28 0.799992C43.96 0.559995 45.34 0.739996 46.42 1.34C50.38 2.78 53.44 3.98 55.6 4.93999C55.48 5.29999 56.5 5.78 58.66 6.38C60.82 8.17999 62.08 10.34 62.44 12.86C64.36 17.66 65.74 21.8 66.58 25.28C67.54 28.76 67.54 31.64 66.58 33.92C65.62 36.2 64.36 38.18 62.8 39.86C61.36 41.42 60.1 42.8 59.02 44C57.34 45.92 54.88 48.2 51.64 50.84C54.88 51.8 57.04 53.3 58.12 55.34C58.48 55.46 59.14 56.12 60.1 57.32C61.06 58.52 61.72 59.6 62.08 60.56C63.76 62.96 64.72 65.36 64.96 67.76C65.68 70.16 66.16 73.64 66.4 78.2C66.76 82.76 65.86 87.38 63.7 92.06L61.72 98C60.88 101 59.8 103.28 58.48 104.84C57.28 106.4 54.76 108.2 50.92 110.24C47.08 112.16 44.74 113.18 43.9 113.3C41.14 115.22 37.42 116.78 32.74 117.98Z" fill="#F6E7B9"/>
</svg>
