<svg width="24" height="24" viewBox="0 0 24 24" fill="none" xmlns="http://www.w3.org/2000/svg">
<rect width="24" height="24" rx="12" fill="#BDBDC4"/>
<path d="M18.7742 7.76866C18.2653 7.99379 17.7255 8.14165 17.1729 8.20733C17.7554 7.85895 18.1913 7.31067 18.3995 6.66466C17.8529 6.99 17.2535 7.218 16.6289 7.34133C16.2093 6.89238 15.6531 6.59464 15.0468 6.49439C14.4406 6.39414 13.8182 6.49699 13.2764 6.78697C12.7346 7.07694 12.3038 7.53779 12.051 8.09786C11.7981 8.65793 11.7374 9.28585 11.8782 9.884C10.7696 9.82843 9.6851 9.54035 8.69507 9.03844C7.70504 8.53654 6.83163 7.83203 6.13155 6.97066C5.88374 7.3963 5.75352 7.88015 5.75421 8.37266C5.75421 9.33933 6.24621 10.1933 6.99421 10.6933C6.55155 10.6794 6.11864 10.5599 5.73155 10.3447V10.3793C5.73168 11.0231 5.95446 11.6471 6.36211 12.1454C6.76976 12.6437 7.3372 12.9856 7.96821 13.1133C7.55729 13.2247 7.12642 13.2411 6.70821 13.1613C6.88612 13.7155 7.23288 14.2001 7.69994 14.5474C8.167 14.8947 8.73097 15.0872 9.31288 15.098C8.73453 15.5522 8.07233 15.888 7.36413 16.0861C6.65594 16.2842 5.91563 16.3408 5.18555 16.2527C6.46001 17.0723 7.94361 17.5074 9.45888 17.506C14.5875 17.506 17.3922 13.2573 17.3922 9.57267C17.3922 9.45267 17.3889 9.33133 17.3835 9.21267C17.9295 8.81811 18.4006 8.32934 18.7749 7.76933L18.7742 7.76866Z" fill="#0D0D0D"/>
</svg>
