<svg width="68" height="122" viewBox="0 0 68 122" fill="none" xmlns="http://www.w3.org/2000/svg">
<path d="M18.78 119L16.62 118.64C16.02 118.64 15.18 118.22 14.1 117.38C13.02 116.42 12.36 116.18 12.12 116.66C12 117.02 11.4 116.78 10.32 115.94C7.56 113.9 5.22 111.14 3.3 107.66C1.5 104.18 1.32 101.24 2.76 98.84C3.36 97.28 4.62 95.24 6.54 92.72C8.46 90.08 9.72 88.22 10.32 87.14C10.92 86.06 12 84.62 13.56 82.82C15.12 80.9 16.14 79.34 16.62 78.14C17.1 76.22 18.72 74.36 21.48 72.56C22.2 71.12 22.8 70.04 23.28 69.32C23.76 68.48 24.24 67.58 24.72 66.62C26.16 63.86 27.06 62.24 27.42 61.76C27.9 61.16 28.32 60.56 28.68 59.96C29.28 59.12 30.36 58.1 31.92 56.9C32.28 55.7 32.82 54.38 33.54 52.94C34.38 51.38 34.92 50.36 35.16 49.88C39.48 44.6 42.6 38.78 44.52 32.42C45 29.78 44.7 27.68 43.62 26.12C42.54 24.56 40.56 24.38 37.68 25.58C29.4 29.42 22.2 36.8 16.08 47.72C14.76 48.32 13.56 48.08 12.48 47C11.52 46.64 10.32 45.74 8.88 44.3C7.32 43.34 6.3 42.14 5.82 40.7C5.34 39.26 5.1 36.8 5.1 33.32C5.1 29.72 5.58 27.02 6.54 25.22C7.5 23.42 8.28 22.34 8.88 21.98C9.6 21.26 9.96 20.18 9.96 18.74C10.68 17.3 11.4 16.46 12.12 16.22C12.6 14.9 12.72 14.06 12.48 13.7L13.56 12.26L15.72 8.3C17.16 6.14 18.96 4.82 21.12 4.34C21.6 3.85999 22.02 3.5 22.38 3.26C22.74 2.9 23.16 2.47999 23.64 1.99999C24.12 1.99999 24.84 1.75999 25.8 1.27999C26.76 1.27999 28.32 1.09999 30.48 0.739999C30.96 0.259998 32.1 0.0799968 33.9 0.199995C35.7 0.199995 37.2 0.559994 38.4 1.27999C40.56 1.52 41.94 1.7 42.54 1.82C43.26 1.93999 43.74 1.99999 43.98 1.99999C44.22 1.99999 44.88 2.65999 45.96 3.97999L47.76 5.41999C48 5.41999 49.44 6.85999 52.08 9.73999C54.84 12.5 56.4 14.42 56.76 15.5C57.24 16.46 57.72 17.12 58.2 17.48C58.8 17.84 59.88 19.1 61.44 21.26C63 23.42 64.02 25.04 64.5 26.12C65.94 28.88 66.42 32.9 65.94 38.18C65.58 43.46 64.08 48.5 61.44 53.3C58.8 58.1 53.52 66.02 45.6 77.06C42.6 81.26 36.54 88.34 27.42 98.3C45.3 98.3 54.42 98.42 54.78 98.66C55.14 98.9 57.12 100.52 60.72 103.52C61.32 104.24 62.34 106.04 63.78 108.92C65.22 111.68 66 113.66 66.12 114.86C66.72 116.42 67.14 117.2 67.38 117.2C67.74 117.68 67.86 118.46 67.74 119.54C67.62 120.74 67.08 121.34 66.12 121.34C65.28 120.38 63.18 119.72 59.82 119.36C56.58 119.12 51.6 119 44.88 119C38.16 119 33.36 119.12 30.48 119.36C22.68 119.36 18.78 119.24 18.78 119Z" fill="#F6E7B9"/>
</svg>
