<svg width="348" height="7" viewBox="0 0 348 7" fill="none" xmlns="http://www.w3.org/2000/svg">
<path fill-rule="evenodd" clip-rule="evenodd" d="M59.4995 4.77673C50.9655 4.99564 42.142 5.22187 33.4585 5.39495C30.3132 5.45736 15.7797 5.67384 13.7555 5.6831C12.5804 5.68895 11.0349 5.76647 9.40024 5.84887C7.37446 5.95077 3.6075 6.14042 3.05733 5.94393C3.04556 5.93955 3.01917 5.90395 3.11139 5.81814C3.50733 5.45052 8.56066 5.1424 18.1315 4.90252C19.5801 4.86595 20.6248 4.83961 21.1781 4.81231C23.6984 4.68652 26.2394 4.57437 28.7915 4.47344C50.5362 4.2321 72.3762 3.56807 93.666 2.91961C98.1231 2.78407 102.617 2.64753 107.134 2.51345C165.133 1.26237 219.992 1.28677 270.533 2.58807C270.705 2.59294 270.875 2.59683 271.045 2.60171C216.482 2.6373 153.529 2.89521 88.4823 4.10143C78.8097 4.28086 68.9925 4.53295 59.4995 4.77673ZM304.019 2.21752C306.245 2.29407 308.486 2.3594 310.731 2.42474C314.025 2.5203 317.431 2.61879 320.737 2.7553C321.801 2.79918 324.372 2.87573 327.347 2.96349C327.751 2.97568 328.177 2.98836 328.621 3.00152C327.498 2.98982 326.371 2.96981 325.266 2.9508C324.076 2.92983 322.887 2.90937 321.704 2.89767C306.671 2.75091 291.325 2.29601 276.483 1.85671C272.646 1.74262 268.814 1.6295 264.99 1.52078C260.325 1.38914 255.651 1.27212 250.965 1.16973C258.49 1.25408 265.874 1.38769 273.268 1.57247C277.448 1.67681 281.742 1.74652 285.892 1.81429C291.866 1.91181 298.043 2.01226 304.019 2.21752ZM333.441 2.11416C329.856 1.8972 325.597 1.64999 321.19 1.46325C317.602 1.31162 313.905 1.21314 310.33 1.11855C308.333 1.0659 306.34 1.01324 304.366 0.951318C298.108 0.755319 291.696 0.652922 285.493 0.55346C281.562 0.491052 277.498 0.425737 273.534 0.337976C261.789 0.0776188 249.682 -0.0272095 235.419 0.00594453L227.044 0.024957C201.168 0.081514 174.413 0.14049 148.084 0.611474C140.964 0.738727 133.802 0.899644 126.645 1.08004C111.13 1.31797 96.0528 1.61538 81.6401 1.92693C77.0702 2.02591 72.462 2.11221 67.838 2.199C52.2185 2.49153 36.0694 2.7948 20.6232 3.60317C20.0603 3.63243 18.9711 3.66216 17.5909 3.70019C16.2234 3.73773 14.8607 3.77722 13.5313 3.82208C11.5357 3.8367 9.54176 3.84839 7.54936 3.85571C7.05802 3.85766 6.66208 3.98151 6.66844 4.13265C6.66844 4.13753 6.67004 4.1424 6.67004 4.14678C3.07164 4.39446 0.494087 4.75917 0.0727099 5.34911C-0.130823 5.63434 0.09497 5.90199 0.72465 6.12286C2.70751 6.81909 9.04724 6.99999 15.1055 6.99999C18.9059 6.99999 22.5965 6.9288 25.0293 6.86932C47.2081 6.72354 69.7764 6.2116 91.6005 5.71673C101.679 5.48806 112.1 5.25208 122.326 5.0556C131.654 4.87617 141.334 4.65483 150.698 4.44079C186.164 3.62998 222.839 2.79187 257.588 3.72457C284.319 4.44226 315.181 4.72699 346.837 4.54757C347.13 4.54611 347.402 4.50028 347.564 4.4252L347.852 4.29159C348.077 4.18676 348.042 4.04829 347.767 3.95565C346.629 3.57487 344.975 3.37256 343.075 3.2731C343.135 2.94887 342.301 2.65145 333.441 2.11416Z" fill="url(#paint0_linear_1407_7278)"/>
<defs>
<linearGradient id="paint0_linear_1407_7278" x1="130.643" y1="1.7619" x2="239.036" y2="1.76191" gradientUnits="userSpaceOnUse">
<stop stop-color="#01A287"/>
<stop offset="1" stop-color="#01B99A"/>
</linearGradient>
</defs>
</svg>
